<svg width="21" height="21" viewBox="0 0 21 21" fill="none" xmlns="http://www.w3.org/2000/svg">
<g clip-path="url(#clip0_167_85)">
<path d="M5.77575 7.16675H15.2249C15.4652 7.16672 15.7027 7.21866 15.9211 7.319C16.1394 7.41934 16.3335 7.56571 16.49 7.74808C16.6465 7.93045 16.7617 8.14451 16.8277 8.37557C16.8937 8.60663 16.9089 8.84923 16.8724 9.08675L15.8266 15.8801C15.7358 16.4705 15.4366 17.0088 14.9832 17.3977C14.5299 17.7866 13.9522 18.0003 13.3549 18.0001H7.64492C7.04775 18.0001 6.47032 17.7863 6.01711 17.3974C5.5639 17.0086 5.26486 16.4703 5.17409 15.8801L4.12825 9.08675C4.09173 8.84923 4.10699 8.60663 4.17301 8.37557C4.23902 8.14451 4.35422 7.93045 4.51071 7.74808C4.66719 7.56571 4.86127 7.41934 5.07962 7.319C5.29798 7.21866 5.53545 7.16672 5.77575 7.16675Z" stroke="white" stroke-width="1.8" stroke-linecap="round" stroke-linejoin="round"/>
<path d="M8 9.66667V5.5C8 4.83696 8.26339 4.20107 8.73223 3.73223C9.20107 3.26339 9.83696 3 10.5 3C11.163 3 11.7989 3.26339 12.2678 3.73223C12.7366 4.20107 13 4.83696 13 5.5V9.66667" stroke="white" stroke-width="1.8" stroke-linecap="round" stroke-linejoin="round"/>
</g>
<defs>
<clipPath id="clip0_167_85">
<rect width="20" height="20" fill="white" transform="translate(0.5 0.5)"/>
</clipPath>
</defs>
</svg>
