<svg xmlns="http://www.w3.org/2000/svg" xmlns:xlink="http://www.w3.org/1999/xlink" version="1.1" id="Layer_1" x="0px" y="0px" viewBox="0 0 195 136" style="enable-background:new 0 0 195 136;" xml:space="preserve" width="100%" height="100%">
<style type="text/css">
	.st0{fill:#E1B728;}
</style>
<g>
	<path class="st0" d="M39.1,115.9C39.2,115.9,39.2,115.9,39.1,115.9c0.5,0,0.8,0,1.2,0c0.1,0,0.1,0,0.1-0.1c0.1-0.3,0.2-0.7,0.3-0.9   v-0.1c0.1,0.2,0.1,0.3,0.2,0.6c0,0.1,0.1,0.3,0.1,0.5c0,0.1,0,0.1,0.1,0.1c0.3,0,0.7,0,1,0h0.1c0,0,0,0-0.1,0.1   c-0.2,0.2-0.6,0.5-0.8,0.6c-0.1,0-0.1,0.1,0,0.1c0.1,0.3,0.2,0.7,0.3,1c0,0-0.1,0-0.1-0.1c-0.2-0.2-0.6-0.3-0.8-0.6   c-0.1,0-0.1,0-0.1,0c-0.2,0.2-0.6,0.3-0.8,0.6c0,0-0.1,0-0.1,0.1c0.1-0.3,0.2-0.7,0.3-1c0-0.1,0-0.1-0.1-0.2   C39.8,116.4,39.4,116.2,39.1,115.9C39.2,115.9,39.2,115.9,39.1,115.9z" style="stroke-dasharray: 13, 15; stroke-dashoffset: 0;"></path>
	<path class="st0" d="M48.2,115.9C48.3,115.9,48.3,115.9,48.2,115.9c0.5,0,0.8,0,1.2,0c0.1,0,0.1,0,0.1-0.1c0.1-0.3,0.2-0.7,0.3-0.9   v-0.1c0.1,0.2,0.1,0.3,0.2,0.6c0,0.1,0.1,0.3,0.1,0.5c0,0.1,0,0.1,0.1,0.1c0.3,0,0.7,0,1,0h0.1c0,0,0,0-0.1,0.1   c-0.2,0.2-0.6,0.5-0.8,0.6c-0.1,0-0.1,0.1,0,0.1c0.1,0.3,0.2,0.7,0.3,1c0,0-0.1,0-0.1-0.1c-0.2-0.2-0.6-0.3-0.8-0.6   c-0.1,0-0.1,0-0.1,0c-0.2,0.2-0.6,0.3-0.8,0.6c0,0-0.1,0-0.1,0.1c0.1-0.3,0.2-0.7,0.3-1c0-0.1,0-0.1-0.1-0.2   C48.8,116.4,48.6,116.2,48.2,115.9L48.2,115.9z" style="stroke-dasharray: 13, 15; stroke-dashoffset: 0;"></path>
	<path class="st0" d="M57.2,115.9C57.3,115.9,57.3,115.9,57.2,115.9c0.5,0,0.8,0,1.2,0c0.1,0,0.1,0,0.1-0.1c0.1-0.3,0.2-0.7,0.3-0.9   v-0.1c0.1,0.2,0.1,0.3,0.2,0.6c0,0.1,0.1,0.3,0.1,0.5c0,0.1,0,0.1,0.1,0.1c0.3,0,0.7,0,1,0h0.1c0,0,0,0-0.1,0.1   c-0.2,0.2-0.6,0.5-0.8,0.6c-0.1,0-0.1,0.1,0,0.1c0.1,0.3,0.2,0.7,0.3,1c0,0-0.1,0-0.1-0.1c-0.2-0.2-0.6-0.3-0.8-0.6   c-0.1,0-0.1,0-0.1,0c-0.2,0.2-0.6,0.3-0.8,0.6c0,0-0.1,0-0.1,0.1c0.1-0.3,0.2-0.7,0.3-1c0-0.1,0-0.1-0.1-0.2   C57.8,116.4,57.6,116.2,57.2,115.9L57.2,115.9z" style="stroke-dasharray: 13, 15; stroke-dashoffset: 0;"></path>
	<path class="st0" d="M130.8,115.9C130.9,115.9,130.9,115.9,130.8,115.9c0.5,0,0.8,0,1.2,0c0.1,0,0.1,0,0.1-0.1   c0.1-0.3,0.2-0.7,0.3-0.9v-0.1c0.1,0.2,0.1,0.3,0.2,0.6c0,0.1,0.1,0.3,0.1,0.5c0,0.1,0,0.1,0.1,0.1c0.3,0,0.7,0,1,0h0.1   c0,0,0,0-0.1,0.1c-0.2,0.2-0.6,0.5-0.8,0.6c-0.1,0-0.1,0.1,0,0.1c0.1,0.3,0.2,0.7,0.3,1c0,0-0.1,0-0.1-0.1   c-0.2-0.2-0.6-0.3-0.8-0.6c-0.1,0-0.1,0-0.1,0c-0.2,0.2-0.6,0.3-0.8,0.6c0,0-0.1,0-0.1,0.1c0.1-0.3,0.2-0.7,0.3-1   c0-0.1,0-0.1-0.1-0.2C131.4,116.4,131.1,116.2,130.8,115.9L130.8,115.9z" style="stroke-dasharray: 13, 15; stroke-dashoffset: 0;"></path>
	<path class="st0" d="M139.8,115.9c0.1,0,0.1,0,0.1,0c0.3,0,0.7,0,1,0c0.1,0,0.1,0,0.1-0.1c0.1-0.3,0.2-0.7,0.3-0.9v-0.1   c0.1,0.2,0.1,0.3,0.2,0.6c0,0.1,0.1,0.3,0.1,0.5c0,0.1,0,0.1,0.1,0.1c0.3,0,0.7,0,1,0h0.1c0,0,0,0-0.1,0.1   c-0.2,0.2-0.6,0.5-0.8,0.6c-0.1,0-0.1,0.1,0,0.1c0.1,0.3,0.2,0.7,0.3,1c0,0-0.1,0-0.1-0.1c-0.2-0.2-0.6-0.3-0.8-0.6   c-0.1,0-0.1,0-0.1,0c-0.2,0.2-0.6,0.3-0.8,0.6c0,0-0.1,0-0.1,0.1c0.1-0.3,0.2-0.7,0.3-1c0-0.1,0-0.1-0.1-0.2   C140.4,116.4,140.1,116.2,139.8,115.9L139.8,115.9z" style="stroke-dasharray: 12, 14; stroke-dashoffset: 0;"></path>
	<path class="st0" d="M148.8,115.9c0.1,0,0.1,0,0.1,0c0.3,0,0.7,0,1,0c0.1,0,0.1,0,0.1-0.1c0.1-0.3,0.2-0.7,0.3-0.9v-0.1   c0.1,0.2,0.1,0.3,0.2,0.6c0,0.1,0.1,0.3,0.1,0.5c0,0.1,0,0.1,0.1,0.1c0.3,0,0.7,0,1,0h0.1c0,0,0,0-0.1,0.1   c-0.2,0.2-0.6,0.5-0.8,0.6c-0.1,0-0.1,0.1,0,0.1c0.1,0.3,0.2,0.7,0.3,1c0,0-0.1,0-0.1-0.1c-0.2-0.2-0.6-0.3-0.8-0.6   c-0.1,0-0.1,0-0.1,0c-0.2,0.2-0.6,0.3-0.8,0.6c0,0-0.1,0-0.1,0.1c0.1-0.3,0.2-0.7,0.3-1c0-0.1,0-0.1-0.1-0.2   C149.3,116.4,149.1,116.2,148.8,115.9L148.8,115.9z" style="stroke-dasharray: 12, 14; stroke-dashoffset: 0;"></path>
	<g>
		<path class="st0" d="M72.3,119.2c0,0.1,0,0.2,0.1,0.2c0.1,0,0.2,0.1,0.5,0.1c0,0,0.1,0,0.1,0.1v0.1c-0.1,0-0.3,0-0.5,0    c-0.1,0-0.3,0-0.5,0c-0.1,0-0.3,0-0.5,0c-0.2,0-0.3,0-0.5,0v-0.1c0-0.1,0-0.1,0.1-0.1c0.2,0,0.3-0.1,0.5-0.1s0.1-0.1,0.1-0.2v-4.3    c0-0.1,0-0.2-0.1-0.2s-0.2-0.1-0.5-0.1c0,0,0,0-0.1,0v-0.1v-0.1c0.1,0,0.3,0,0.6,0c0.2,0,0.3,0,0.5,0s0.3,0,0.5,0    c0.2,0,0.3,0,0.6,0v0.1c0,0.1,0,0.1-0.1,0.1c-0.2,0-0.3,0.1-0.5,0.1s-0.1,0.1-0.1,0.2v4.3H72.3z" style="stroke-dasharray: 18, 20; stroke-dashoffset: 0;"></path>
		<path class="st0" d="M79.7,114.7v4.5c0,0.1,0,0.2,0.1,0.2s0.2,0.1,0.6,0.1c0.1,0,0.1,0,0.1,0.1v0.1c-0.2,0-0.3,0-0.6,0    c-0.2,0-0.3,0-0.6,0c-0.2,0-0.3,0-0.6,0s-0.3,0-0.6,0v-0.1c0-0.1,0-0.1,0.1-0.1c0.2,0,0.5-0.1,0.6-0.1s0.1-0.1,0.1-0.2v-4.5h-0.8    c-0.1,0-0.3,0-0.5,0c-0.1,0-0.2,0.1-0.3,0.1c-0.1,0.1-0.1,0.1-0.2,0.2c-0.1,0.1-0.1,0.2-0.2,0.3c0,0,0,0,0,0.1c0,0,0,0-0.1,0    s-0.1,0-0.1,0c0-0.2,0.1-0.3,0.1-0.6c0-0.1,0-0.2,0.1-0.3c0-0.1,0-0.2,0.1-0.2l0.1-0.1h0.1c0.1,0,0.1,0,0.2,0s0.1,0,0.2,0    c0.1,0,0.1,0,0.2,0h2.8c0.1,0,0.1,0,0.2,0c0.1,0,0.1,0,0.2,0s0.1,0,0.2,0s0.1,0,0.1,0s0.1,0,0.1,0.1c0,0,0,0.1,0.1,0.2    c0,0.1,0,0.2,0.1,0.3c0,0.1,0.1,0.3,0.1,0.5c0,0,0,0-0.1,0c0,0,0,0-0.1,0c0,0,0,0-0.1,0c0,0,0,0-0.1-0.1c-0.1-0.1-0.1-0.2-0.2-0.3    c-0.1-0.1-0.1-0.2-0.2-0.2c-0.1-0.1-0.2-0.1-0.3-0.1c-0.1,0-0.2,0-0.5,0L79.7,114.7L79.7,114.7z" style="stroke-dasharray: 26, 28; stroke-dashoffset: 0;"></path>
		<path class="st0" d="M88.2,117.8h-1.8l-0.6,1.4c0,0.1,0,0.1,0,0.1c0,0.1,0.1,0.2,0.5,0.2h0.1c0,0,0,0,0,0.1v0.1    c-0.1,0-0.3,0-0.5,0s-0.3,0-0.5,0s-0.2,0-0.3,0c-0.1,0-0.2,0-0.3,0v-0.1v-0.1c0,0,0,0,0.1,0s0.3-0.1,0.3-0.1    c0.1,0,0.1-0.1,0.2-0.2l2-4.8c0-0.1,0.1-0.1,0.1-0.1s0,0,0.1,0l2,5c0,0.1,0.1,0.1,0.2,0.2c0.1,0,0.2,0.1,0.3,0.1h0.1    c0,0,0,0,0,0.1v0.1c-0.2,0-0.3,0-0.6,0c-0.1,0-0.3,0-0.5,0s-0.3,0-0.6,0c-0.2,0-0.3,0-0.6,0v-0.1v-0.1l0,0c0.1,0,0.2-0.1,0.3-0.1    c0.1,0,0.1-0.1,0.1-0.1v-0.1L88.2,117.8z M88.1,117.4l-0.8-2.1l-0.8,2.1H88.1z" style="stroke-dasharray: 30, 32; stroke-dashoffset: 0;"></path>
		<path class="st0" d="M95.6,119.2c0,0.1,0,0.1,0.1,0.2c0.1,0,0.2,0.1,0.3,0.1H97c0.1,0,0.3,0,0.5-0.1c0.1,0,0.2-0.1,0.3-0.2    c0.1-0.1,0.1-0.2,0.2-0.2c0.1-0.1,0.1-0.2,0.1-0.3c0,0,0-0.1,0.1-0.1c0,0,0,0,0.1,0h0.1c0,0.1-0.1,0.3-0.1,0.6    c0,0.2-0.1,0.3-0.1,0.6c0,0.1,0,0.1,0,0.1h-0.1c-0.1,0-0.2,0-0.3,0s-0.2,0-0.3,0h-2.1c-0.1,0-0.3,0-0.5,0c-0.2,0-0.3,0-0.6,0v-0.1    c0-0.1,0-0.1,0.1-0.1c0.2,0,0.3-0.1,0.5-0.1c0.1,0,0.1-0.1,0.1-0.2v-4.3c0-0.1,0-0.2-0.1-0.2c-0.1,0-0.2-0.1-0.5-0.1    c0,0,0,0-0.1,0c0,0,0,0,0-0.1v-0.1c0.2,0,0.3,0,0.6,0c0.2,0,0.3,0,0.5,0c0.2,0,0.3,0,0.6,0c0.2,0,0.3,0,0.6,0v0.1    c0,0.1,0,0.1-0.1,0.1c-0.2,0-0.5,0.1-0.6,0.1c-0.1,0-0.1,0.1-0.1,0.2L95.6,119.2L95.6,119.2z" style="stroke-dasharray: 23, 25; stroke-dashoffset: 0;"></path>
		<path class="st0" d="M103.4,119.2c0,0.1,0,0.2,0.1,0.2s0.2,0.1,0.5,0.1c0,0,0.1,0,0.1,0.1v0.1c-0.1,0-0.3,0-0.5,0s-0.3,0-0.5,0    s-0.3,0-0.5,0c-0.2,0-0.3,0-0.5,0v-0.1c0-0.1,0-0.1,0.1-0.1c0.2,0,0.3-0.1,0.5-0.1c0.1,0,0.1-0.1,0.1-0.2v-4.3    c0-0.1,0-0.2-0.1-0.2c-0.1,0-0.2-0.1-0.5-0.1c0,0,0,0-0.1,0v-0.1v-0.1c0.1,0,0.3,0,0.6,0c0.2,0,0.3,0,0.5,0c0.1,0,0.3,0,0.5,0    c0.2,0,0.3,0,0.6,0v0.1c0,0.1,0,0.1-0.1,0.1c-0.2,0-0.3,0.1-0.5,0.1c-0.1,0-0.1,0.1-0.1,0.2v4.3H103.4z" style="stroke-dasharray: 18, 20; stroke-dashoffset: 0;"></path>
		<path class="st0" d="M111.4,117.8h-1.8l-0.6,1.4c0,0.1,0,0.1,0,0.1c0,0.1,0.1,0.2,0.5,0.2h0.1c0,0,0,0,0,0.1v0.1    c-0.1,0-0.3,0-0.5,0s-0.3,0-0.5,0s-0.2,0-0.3,0s-0.2,0-0.3,0v-0.1v-0.1c0,0,0,0,0.1,0c0.1,0,0.3-0.1,0.3-0.1    c0.1,0,0.1-0.1,0.2-0.2l2-4.8c0-0.1,0.1-0.1,0.1-0.1s0,0,0.1,0l2,5c0,0.1,0.1,0.1,0.2,0.2c0.1,0,0.2,0.1,0.3,0.1h0.1    c0,0,0,0,0,0.1v0.1c-0.2,0-0.3,0-0.6,0c-0.1,0-0.3,0-0.5,0c-0.1,0-0.3,0-0.6,0c-0.2,0-0.3,0-0.6,0v-0.1v-0.1l0,0    c0.1,0,0.2-0.1,0.3-0.1c0.1,0,0.1-0.1,0.1-0.1v-0.1L111.4,117.8z M111.3,117.4l-0.8-2.1l-0.8,2.1H111.3z" style="stroke-dasharray: 30, 32; stroke-dashoffset: 0;"></path>
		<path class="st0" d="M121.6,118.5V115c0-0.1,0-0.2-0.1-0.2s-0.2-0.1-0.5-0.1c-0.1,0-0.1,0-0.1-0.1v-0.1c0.1,0,0.2,0,0.5,0    c0.1,0,0.2,0,0.5,0c0.1,0,0.2,0,0.3,0c0.1,0,0.2,0,0.3,0v0.1c0,0.1,0,0.1-0.1,0.1c-0.2,0-0.3,0.1-0.3,0.1c-0.1,0-0.1,0.1-0.1,0.2    v5c0,0,0,0-0.1,0c0,0,0,0-0.1,0h-0.1l-0.1-0.1l-3.3-4.5v3.9c0,0.1,0,0.2,0.1,0.2c0.1,0,0.2,0.1,0.5,0.1c0,0,0.1,0,0.1,0.1v0.1    c-0.1,0-0.2,0-0.5,0c-0.1,0-0.2,0-0.3,0c-0.1,0-0.2,0-0.3,0c-0.1,0-0.2,0-0.5,0v-0.1c0-0.1,0-0.1,0.1-0.1c0.2,0,0.3-0.1,0.5-0.1    c0.1,0,0.1-0.1,0.1-0.2V115c0-0.1,0-0.1-0.1-0.2c-0.1,0-0.2-0.1-0.3-0.1s-0.1-0.1-0.1-0.1s0,0,0-0.1c0,0,0,0,0-0.1    c0.1,0,0.2,0,0.3,0c0.1,0,0.2,0,0.2,0c0.1,0,0.2,0,0.2,0c0.1,0,0.2,0,0.3,0s0.1,0,0.1,0.1L121.6,118.5z" style="stroke-dasharray: 37, 39; stroke-dashoffset: 0;"></path>
	</g>
	<g>
		<path class="st0" d="M14.6,125.7c-0.1,0-0.1,0-0.1,0c-0.1,0-0.1,0-0.2,0l-0.1-0.1c-0.2-0.3-0.3-0.6-0.5-0.8    c-0.2-0.2-0.5-0.2-1-0.2c-0.1,0-0.3,0-0.4,0.1c-0.1,0-0.2,0.1-0.3,0.2c-0.1,0.1-0.2,0.2-0.2,0.3s-0.1,0.2-0.1,0.3    c0,0.3,0.1,0.5,0.3,0.8c0.2,0.2,0.6,0.4,1.1,0.5c0.6,0.2,1.1,0.5,1.3,0.8c0.3,0.3,0.4,0.6,0.4,1.1c0,0.2,0,0.5-0.1,0.8    c-0.1,0.2-0.2,0.4-0.3,0.5c-0.2,0.2-0.4,0.3-0.6,0.4c-0.2,0.1-0.5,0.1-1,0.1c-0.4,0-0.8,0-1.1-0.1c-0.3-0.1-0.5-0.2-0.8-0.3    c0-0.2,0-0.5-0.1-0.8c0-0.2-0.1-0.5-0.1-0.8h0.1c0.1,0,0.1,0,0.2,0c0,0,0.1,0.1,0.1,0.2c0.1,0.4,0.3,0.8,0.6,1    c0.2,0.2,0.6,0.3,1.1,0.3c0.2,0,0.3,0,0.5-0.1c0.1-0.1,0.3-0.1,0.3-0.2c0.1-0.1,0.2-0.2,0.2-0.3c0-0.1,0.1-0.2,0.1-0.4    c0-0.3-0.1-0.5-0.3-0.8c-0.2-0.2-0.5-0.3-1-0.5c-0.3-0.1-0.5-0.2-0.8-0.3c-0.2-0.1-0.4-0.2-0.5-0.4c-0.1-0.1-0.3-0.3-0.3-0.5    c-0.1-0.2-0.1-0.4-0.1-0.6s0-0.4,0.1-0.6c0.1-0.2,0.2-0.4,0.3-0.5c0.1-0.1,0.3-0.3,0.5-0.3c0.2-0.1,0.4-0.1,0.8-0.1    c0.3,0,0.5,0,0.9,0.1c0.2,0.1,0.5,0.1,0.9,0.3c0,0.2,0,0.4,0,0.6C14.5,125.3,14.6,125.5,14.6,125.7z" style="stroke-dasharray: 31, 33; stroke-dashoffset: 0;"></path>
		<path class="st0" d="M20.1,124.6v2.4h1.5c0.1,0,0.2-0.1,0.2-0.2c0-0.1,0.1-0.3,0.1-0.4c0-0.1,0.1-0.1,0.2-0.1c0,0,0,0,0.1,0h0.1    c0,0.1,0,0.3,0,0.4s0,0.3,0,0.4s0,0.2,0,0.4c0,0.1,0,0.3,0,0.5h-0.1c-0.1,0-0.1,0-0.2-0.1c0-0.2-0.1-0.3-0.1-0.4    c0-0.1-0.1-0.2-0.2-0.2h-1.5v2.3c0,0.1,0.1,0.2,0.2,0.2c0.2,0,0.4,0.1,0.9,0.1h0.5c0.2,0,0.3,0,0.4-0.1c0.1,0,0.2-0.1,0.3-0.2    c0.1-0.1,0.2-0.2,0.3-0.3c0.1-0.1,0.1-0.2,0.2-0.4l0.1-0.1h0.1c0,0,0.1,0,0.1,0.1c-0.1,0.1-0.1,0.2-0.1,0.4s-0.1,0.3-0.1,0.4    c0,0.1-0.1,0.3-0.1,0.4s-0.1,0.1-0.1,0.1s-0.1,0-0.2,0c-0.1,0-0.2,0-0.3,0c-0.1,0-0.2,0-0.3,0c-0.1,0-0.2,0-0.3,0h-2    c-0.2,0-0.3,0-0.5,0c-0.2,0-0.4,0-0.5,0c0-0.1,0-0.1,0-0.1c0-0.1,0-0.1,0.1-0.1c0.2,0,0.4-0.1,0.5-0.1s0.1-0.1,0.1-0.2V125    c0-0.1,0-0.2-0.1-0.2s-0.2-0.1-0.5-0.1c-0.1,0-0.1-0.1-0.1-0.1v-0.1c0,0,0,0,0-0.1c0.3,0,0.5,0,0.6,0c0.2,0,0.3,0,0.5,0h1.8    c0.3,0,0.5,0,0.8,0c0.2,0,0.3,0,0.4,0c0.1,0,0.1,0,0.2,0.1c0,0.1,0,0.2,0.1,0.3c0,0.1,0,0.3,0.1,0.4c0,0.2,0.1,0.3,0.1,0.4    c0,0-0.1,0.1-0.2,0.1c-0.1,0-0.1,0-0.1-0.1c-0.1-0.2-0.1-0.3-0.2-0.4c-0.1-0.1-0.1-0.2-0.2-0.3c-0.1-0.1-0.2-0.1-0.3-0.2    c-0.1,0-0.3-0.1-0.4-0.1L20.1,124.6L20.1,124.6z" style="stroke-dasharray: 38, 40; stroke-dashoffset: 0;"></path>
		<path class="st0" d="M30.5,128.1h-2l-0.6,1.5c0,0.1,0,0.1,0,0.2s0.2,0.2,0.5,0.3h0.1v0.1v0.1c-0.2,0-0.3,0-0.5,0s-0.3,0-0.5,0    c-0.1,0-0.2,0-0.4,0c-0.1,0-0.3,0-0.4,0v-0.1v-0.1c0,0,0,0,0.1-0.1c0.2,0,0.3-0.1,0.4-0.1c0.1,0,0.2-0.1,0.2-0.2l2.3-5.5    c0-0.1,0.1-0.1,0.2-0.1h0.1l2.3,5.6c0,0.1,0.1,0.1,0.2,0.2c0.1,0,0.2,0.1,0.4,0.1h0.1v0.1v0.1c-0.2,0-0.4,0-0.5,0    c-0.2,0-0.3,0-0.5,0c-0.2,0-0.3,0-0.6,0c-0.2,0-0.4,0-0.6,0c0-0.1,0-0.1,0-0.1c0-0.1,0-0.1,0-0.1s0,0,0.1,0c0.2,0,0.3-0.1,0.4-0.1    c0.1,0,0.1-0.1,0.1-0.2v-0.1L30.5,128.1z M30.4,127.7l-0.9-2.3l-0.9,2.3H30.4z" style="stroke-dasharray: 33, 35; stroke-dashoffset: 0;"></path>
		<path class="st0" d="M37,124.9c0-0.1,0-0.2-0.1-0.2c-0.1,0-0.3-0.1-0.5-0.1h-0.1v-0.1v-0.1c0.2,0,0.4,0,0.6,0s0.4,0,0.5,0h1.8    c0.2,0,0.4,0,0.6,0c0.2,0,0.3,0,0.4,0s0.1,0,0.1,0.1c0,0.1,0.1,0.2,0.1,0.3c0,0.1,0,0.3,0.1,0.4c0,0.1,0.1,0.3,0.1,0.4    c0,0,0,0-0.1,0h-0.1c-0.1,0-0.1,0-0.1-0.1c-0.1-0.2-0.1-0.3-0.2-0.4c-0.1-0.1-0.1-0.2-0.2-0.3c-0.1-0.1-0.2-0.1-0.3-0.2    c-0.1,0-0.3,0-0.4,0h-1.4v2.5h1.4c0.1,0,0.2-0.1,0.2-0.2s0.1-0.2,0.1-0.4c0-0.1,0.1-0.1,0.2-0.1h0.1c0,0.1,0,0.3,0,0.4    c0,0.2,0,0.3,0,0.4c0,0.1,0,0.2,0,0.4c0,0.1,0,0.3,0,0.5h-0.1h-0.1c0,0,0,0-0.1-0.1c0-0.2-0.1-0.3-0.1-0.4    c-0.1-0.1-0.1-0.2-0.3-0.2h-1.4v2.1c0,0.1,0.1,0.2,0.2,0.2s0.3,0.1,0.5,0.1c0.1,0,0.1,0.1,0.1,0.1v0.1c-0.1,0-0.3,0-0.4,0    s-0.3,0-0.4,0s-0.3,0-0.5,0c-0.2,0-0.3,0-0.5,0c-0.2,0-0.4,0-0.5,0c0-0.1,0-0.1,0-0.1c0-0.1,0-0.1,0.1-0.1c0.2,0,0.3-0.1,0.5-0.1    c0.1,0,0.2-0.1,0.2-0.2V124.9z" style="stroke-dasharray: 31, 33; stroke-dashoffset: 0;"></path>
		<path class="st0" d="M44.2,127.3c0-0.4,0.1-0.9,0.2-1.2c0.1-0.4,0.3-0.8,0.6-1c0.3-0.3,0.5-0.5,1-0.6c0.3-0.2,0.8-0.2,1.1-0.2    c0.5,0,1,0.1,1.4,0.2c0.4,0.2,0.8,0.4,1,0.6c0.2,0.3,0.4,0.6,0.6,1c0.1,0.4,0.2,0.8,0.2,1.2c0,0.5-0.1,1-0.2,1.3    c-0.2,0.4-0.4,0.8-0.6,1c-0.3,0.3-0.6,0.4-1,0.6c-0.4,0.1-0.8,0.2-1.2,0.2s-0.9-0.1-1.2-0.2c-0.3-0.1-0.6-0.3-1-0.6    c-0.2-0.3-0.4-0.6-0.6-1C44.2,128.2,44.2,127.7,44.2,127.3z M47.4,130c0.3,0,0.5-0.1,0.8-0.2c0.2-0.1,0.4-0.2,0.6-0.4    s0.3-0.4,0.4-0.8c0.1-0.3,0.1-0.5,0.1-0.9c0-0.4,0-0.9-0.1-1.3s-0.2-0.8-0.4-1c-0.2-0.2-0.4-0.5-0.8-0.6c-0.3-0.2-0.6-0.2-1-0.2    c-0.2,0-0.5,0-0.8,0.1c-0.2,0.1-0.4,0.2-0.6,0.4c-0.2,0.2-0.3,0.4-0.4,0.6c-0.1,0.2-0.1,0.5-0.1,1s0,0.9,0.1,1.3    c0.1,0.4,0.2,0.8,0.4,1.1c0.2,0.3,0.4,0.5,0.8,0.6C46.6,129.9,47,130,47.4,130z" style="stroke-dasharray: 36, 38; stroke-dashoffset: 0;"></path>
		<path class="st0" d="M53.9,127.3c0-0.4,0.1-0.9,0.2-1.2c0.1-0.4,0.3-0.8,0.6-1c0.3-0.3,0.5-0.5,1-0.6c0.3-0.2,0.8-0.2,1.1-0.2    c0.5,0,1,0.1,1.4,0.2c0.4,0.2,0.8,0.4,1,0.6c0.2,0.3,0.4,0.6,0.6,1c0.1,0.4,0.2,0.8,0.2,1.2c0,0.5-0.1,1-0.2,1.3    c-0.2,0.4-0.4,0.8-0.6,1c-0.3,0.3-0.6,0.4-1,0.6c-0.4,0.1-0.8,0.2-1.2,0.2c-0.4,0-0.9-0.1-1.2-0.2c-0.3-0.1-0.6-0.3-1-0.6    c-0.2-0.3-0.4-0.6-0.6-1C54,128.2,53.9,127.7,53.9,127.3z M57.1,130c0.3,0,0.5-0.1,0.9-0.2c0.2-0.1,0.4-0.2,0.6-0.4    s0.3-0.4,0.4-0.8c0.1-0.3,0.1-0.5,0.1-0.9c0-0.4,0-0.9-0.1-1.3c-0.1-0.4-0.2-0.8-0.4-1s-0.4-0.5-0.8-0.6c-0.3-0.2-0.6-0.2-1-0.2    c-0.2,0-0.5,0-0.8,0.1c-0.2,0.1-0.4,0.2-0.6,0.4c-0.2,0.2-0.3,0.4-0.4,0.6c-0.1,0.2-0.1,0.5-0.1,1s0,0.9,0.1,1.3    c0.1,0.4,0.2,0.8,0.4,1.1c0.2,0.3,0.4,0.5,0.8,0.6C56.5,129.9,56.8,130,57.1,130z" style="stroke-dasharray: 36, 38; stroke-dashoffset: 0;"></path>
		<path class="st0" d="M70,127.3c0,0.3-0.1,0.8-0.2,1.1c-0.1,0.3-0.3,0.6-0.5,1c-0.2,0.3-0.5,0.5-1,0.8c-0.4,0.2-0.9,0.2-1.4,0.2H65    c-0.2,0-0.3,0-0.5,0s-0.4,0-0.6,0c0-0.1,0-0.1,0-0.1c0-0.1,0-0.1,0.1-0.1c0.2-0.1,0.4-0.1,0.5-0.1s0.1-0.1,0.1-0.2v-4.7    c0-0.1,0-0.2-0.1-0.2s-0.2-0.1-0.5-0.1c0,0-0.1,0-0.1-0.1v-0.1v-0.1c0.1,0,0.2,0,0.3,0c0.1,0,0.2,0,0.3,0c0.1,0,0.2,0,0.2,0    c0.1,0,0.2,0,0.2,0h1.9c0.5,0,1,0.1,1.4,0.2c0.4,0.2,0.8,0.4,1,0.6c0.2,0.3,0.4,0.6,0.5,1C69.9,126.5,70,126.9,70,127.3z     M69,127.4c0-1-0.2-1.7-0.8-2.1c-0.4-0.4-1.2-0.6-2-0.6h-0.9v4.9c0,0.1,0,0.1,0,0.1l0.1,0.1c0,0,0.2,0,0.3,0.1c0.1,0,0.3,0,0.5,0    c0.4,0,0.9-0.1,1.2-0.2c0.3-0.1,0.6-0.3,0.8-0.5c0.2-0.2,0.3-0.4,0.4-0.8C68.9,128.2,69,127.9,69,127.4z" style="stroke-dasharray: 38, 40; stroke-dashoffset: 0;"></path>
		<path class="st0" d="M84.7,130.2C84.7,130.2,84.6,130.3,84.7,130.2c0,0.1,0,0.1,0,0.2c-0.2,0-0.4,0-0.8,0c-0.1,0-0.2,0-0.3,0    c-0.1,0-0.2,0-0.3-0.1c-0.1-0.1-0.3-0.1-0.5-0.3c-0.2-0.1-0.4-0.3-0.6-0.5c-0.3,0.3-0.5,0.5-0.9,0.8c-0.3,0.2-0.6,0.3-1.1,0.3    c-0.2,0-0.4,0-0.6-0.1c-0.2-0.1-0.4-0.1-0.5-0.3c-0.1-0.1-0.2-0.3-0.3-0.4c-0.1-0.2-0.1-0.4-0.1-0.6c0-0.3,0.1-0.6,0.3-1    c0.2-0.3,0.5-0.5,1-0.9c-0.2-0.2-0.3-0.3-0.4-0.4c-0.1-0.1-0.2-0.3-0.2-0.4c-0.1-0.1-0.1-0.2-0.1-0.3c0-0.1,0-0.2,0-0.4    c0-0.3,0.1-0.6,0.4-0.9c0.2-0.2,0.5-0.3,1-0.3c0.2,0,0.3,0,0.5,0.1c0.2,0.1,0.3,0.1,0.4,0.2c0.1,0.1,0.2,0.2,0.3,0.4    c0.1,0.1,0.1,0.3,0.1,0.5s-0.1,0.4-0.2,0.6c-0.1,0.2-0.3,0.4-0.8,0.6c0.3,0.3,0.6,0.6,1,1c0.3,0.3,0.5,0.5,0.8,0.8    c0.1-0.2,0.2-0.3,0.3-0.5c0.1-0.2,0.2-0.3,0.2-0.5c0.1-0.1,0.1-0.3,0.2-0.4c0-0.1,0.1-0.2,0.1-0.3s0-0.1-0.1-0.1    c0,0-0.1-0.1-0.3-0.1c-0.1,0-0.1,0-0.1-0.1c0,0,0,0,0-0.1v-0.1c0.1,0,0.2,0,0.4,0c0.1,0,0.3,0,0.4,0c0.3,0,0.5,0,0.8,0v0.1v0.1    c0,0.1,0,0.1-0.1,0.1s-0.1,0-0.2,0c-0.1,0-0.1,0-0.1,0.1l-0.1,0.1c0,0-0.1,0.1-0.1,0.2c-0.1,0.3-0.3,0.5-0.4,0.9    c-0.1,0.3-0.3,0.5-0.5,0.9c0.2,0.2,0.4,0.4,0.6,0.5c0.2,0.1,0.3,0.2,0.4,0.3c0.1,0.1,0.2,0.2,0.3,0.2c0.1,0,0.2,0.1,0.2,0.1    s0,0,0.1,0h0.1C84.8,130,84.5,130.1,84.7,130.2C84.6,130.2,84.7,130.2,84.7,130.2z M79.9,127.3c-0.2,0.2-0.4,0.4-0.5,0.6    c-0.1,0.2-0.2,0.5-0.2,0.8s0,0.4,0.1,0.5c0.1,0.1,0.2,0.2,0.3,0.3c0.1,0.1,0.2,0.1,0.3,0.2c0.1,0,0.2,0,0.3,0c0.2,0,0.5,0,0.8-0.1    c0.2-0.1,0.4-0.3,0.8-0.5c-0.2-0.2-0.5-0.4-0.9-0.8C80.6,128.2,80.3,127.7,79.9,127.3z M80.4,126.8c0.2-0.2,0.3-0.3,0.4-0.5    c0.1-0.2,0.1-0.3,0.1-0.5c0-0.3-0.1-0.5-0.2-0.6c-0.1-0.2-0.3-0.2-0.5-0.2s-0.3,0-0.4,0.1c-0.1,0.1-0.1,0.2-0.1,0.4    c0,0.2,0.1,0.4,0.2,0.6C79.9,126.1,80.1,126.5,80.4,126.8z" style="stroke-dasharray: 43, 45; stroke-dashoffset: 0;"></path>
		<path class="st0" d="M96.6,125.7C96.5,125.7,96.5,125.7,96.6,125.7c-0.2,0-0.2,0-0.3,0l-0.1-0.1c-0.2-0.3-0.3-0.6-0.5-0.8    c-0.2-0.2-0.5-0.2-1-0.2c-0.1,0-0.3,0-0.4,0.1c-0.1,0-0.2,0.1-0.3,0.2c-0.1,0.1-0.2,0.2-0.2,0.3s-0.1,0.2-0.1,0.3    c0,0.3,0.1,0.5,0.3,0.8c0.2,0.2,0.6,0.4,1.1,0.5c0.6,0.2,1.1,0.5,1.3,0.8c0.2,0.2,0.4,0.6,0.4,1.1c0,0.2,0,0.5-0.1,0.8    c-0.1,0.2-0.2,0.4-0.3,0.5c-0.2,0.2-0.4,0.3-0.6,0.4c-0.2,0.1-0.5,0.1-1,0.1s-0.8,0-1.1-0.1c-0.3-0.1-0.5-0.2-0.8-0.3    c0-0.2,0-0.5-0.1-0.8c0-0.2-0.1-0.5-0.1-0.8h0.1c0.1,0,0.1,0,0.2,0c0,0,0.1,0.1,0.1,0.2c0.1,0.4,0.3,0.8,0.6,1    c0.2,0.2,0.5,0.3,1.1,0.3c0.2,0,0.3,0,0.5-0.1c0.1-0.1,0.3-0.1,0.3-0.2c0-0.1,0.2-0.2,0.2-0.3c0-0.1,0.1-0.2,0.1-0.4    c0-0.3-0.1-0.5-0.3-0.8c-0.2-0.2-0.5-0.3-1-0.5c-0.3-0.1-0.5-0.2-0.8-0.3c-0.2-0.1-0.4-0.2-0.5-0.4c-0.1-0.1-0.3-0.3-0.3-0.5    c-0.1-0.2-0.1-0.4-0.1-0.6s0-0.4,0.1-0.6c0.1-0.2,0.2-0.4,0.3-0.5c0.1-0.1,0.3-0.3,0.5-0.3c0.2-0.1,0.4-0.1,0.8-0.1    c0.3,0,0.5,0,0.9,0.1c0.3,0.1,0.5,0.1,0.9,0.3c0,0.2,0,0.4,0,0.6C96.5,125.3,96.5,125.5,96.6,125.7z" style="stroke-dasharray: 31, 33; stroke-dashoffset: 0;"></path>
		<path class="st0" d="M103.5,124.6v5c0,0.1,0.1,0.2,0.2,0.3c0.1,0.1,0.3,0.1,0.6,0.1c0.1,0,0.1,0,0.1,0.1v0.1c-0.2,0-0.4,0-0.6,0    s-0.4,0-0.6,0c-0.2,0-0.4,0-0.6,0c-0.2,0-0.4,0-0.6,0c0-0.1,0-0.1,0-0.1c0-0.1,0-0.1,0.1-0.1c0.3,0,0.5-0.1,0.6-0.1    c0.1-0.1,0.2-0.1,0.2-0.3v-5h-1c-0.2,0-0.3,0-0.4,0.1c-0.1,0-0.2,0.1-0.3,0.2c-0.1,0.1-0.2,0.2-0.2,0.3c-0.1,0.1-0.1,0.2-0.2,0.4    c0,0,0,0-0.1,0.1h-0.1c-0.1,0-0.1,0-0.2-0.1c0.1-0.2,0.1-0.4,0.1-0.6c0-0.2,0.1-0.3,0.1-0.4s0-0.2,0.1-0.2c0-0.1,0.1-0.1,0.1-0.1    s0.1,0,0.2,0s0.2,0,0.2,0c0.1,0,0.2,0,0.3,0c0.1,0,0.2,0,0.2,0h3.1c0.1,0,0.1,0,0.2,0s0.2,0,0.3,0c0.1,0,0.2,0,0.2,0    c0.1,0,0.1,0,0.2,0s0.1,0,0.1,0.1c0,0.1,0.1,0.1,0.1,0.3c0,0.1,0,0.2,0.1,0.4c0,0.2,0.1,0.3,0.1,0.5H106h-0.1c0,0,0,0-0.1,0    c0,0,0,0-0.1-0.1s-0.1-0.3-0.2-0.4c-0.1-0.1-0.1-0.2-0.2-0.3c-0.1-0.1-0.2-0.1-0.3-0.2c-0.1-0.1-0.3-0.1-0.4-0.1L103.5,124.6    L103.5,124.6z" style="stroke-dasharray: 29, 31; stroke-dashoffset: 0;"></path>
		<path class="st0" d="M111,124.6v2.4h1.5c0.1,0,0.2-0.1,0.2-0.2c0-0.1,0.1-0.3,0.1-0.4c0-0.1,0.1-0.1,0.2-0.1c0,0,0,0,0.1,0h0.1    c0,0.1,0,0.3,0,0.4c0,0.2,0,0.3,0,0.4s0,0.2,0,0.4c0,0.1,0,0.3,0,0.5h-0.1c-0.1,0-0.1,0-0.2-0.1c0-0.2-0.1-0.3-0.1-0.4    c0-0.1-0.1-0.2-0.2-0.2h-1.5v2.3c0,0.1,0.1,0.2,0.2,0.2s0.4,0.1,0.9,0.1h0.5c0.2,0,0.3,0,0.4-0.1c0.1,0,0.2-0.1,0.3-0.2    c0.1-0.1,0.2-0.2,0.3-0.3c0.1-0.1,0.1-0.2,0.2-0.4l0.1-0.1h0.1c0,0,0.1,0,0.1,0.1c-0.1,0.1-0.1,0.2-0.1,0.4s-0.1,0.3-0.1,0.4    c0,0.1-0.1,0.3-0.1,0.4c0,0.1-0.1,0.1-0.1,0.1s-0.1,0-0.2,0s-0.2,0-0.3,0c-0.1,0-0.2,0-0.3,0s-0.2,0-0.3,0h-2.3    c-0.2,0-0.3,0-0.5,0s-0.4,0-0.5,0c0-0.1,0-0.1,0-0.1c0-0.1,0-0.1,0.1-0.1c0.2,0,0.4-0.1,0.5-0.1s0.1-0.1,0.1-0.2V125    c0-0.1,0-0.2-0.1-0.2s-0.2-0.1-0.5-0.1c-0.1,0-0.1-0.1-0.1-0.1v-0.1c0,0,0,0,0-0.1c0.2,0,0.5,0,0.6,0c0.2,0,0.3,0,0.5,0h1.8    c0.3,0,0.5,0,0.8,0c0.2,0,0.3,0,0.4,0s0.1,0,0.2,0.1c0,0.1,0,0.2,0.1,0.3c0,0.1,0,0.3,0.1,0.4c0,0.2,0.1,0.3,0.1,0.4    c0,0-0.1,0.1-0.2,0.1c-0.1,0-0.1,0-0.1-0.1c-0.1-0.2-0.1-0.3-0.2-0.4s-0.1-0.2-0.2-0.3c-0.1-0.1-0.2-0.1-0.3-0.2    c-0.1,0-0.3-0.1-0.4-0.1L111,124.6L111,124.6z" style="stroke-dasharray: 38, 40; stroke-dashoffset: 0;"></path>
		<path class="st0" d="M121.4,128.1h-2l-0.6,1.5c0,0.1,0,0.1,0,0.2s0.2,0.2,0.5,0.3h0.1v0.1v0.1c-0.2,0-0.3,0-0.5,0    c-0.2,0-0.3,0-0.5,0c-0.1,0-0.2,0-0.4,0c-0.1,0-0.3,0-0.4,0v-0.1v-0.1c0,0,0,0,0.1-0.1c0.2,0,0.3-0.1,0.4-0.1s0.2-0.1,0.2-0.2    l2.3-5.5c0-0.1,0.1-0.1,0.2-0.1h0.1l2.3,5.6c0,0.1,0.1,0.1,0.2,0.2c0.1,0,0.2,0.1,0.4,0.1h0.1v0.1v0.1c-0.2,0-0.4,0-0.5,0    c-0.2,0-0.3,0-0.5,0c-0.2,0-0.3,0-0.6,0c-0.2,0-0.4,0-0.6,0c0-0.1,0-0.1,0-0.1c0-0.1,0-0.1,0-0.1s0,0,0.1,0c0.2,0,0.3-0.1,0.4-0.1    s0.1-0.1,0.1-0.2v-0.1L121.4,128.1z M121.2,127.7l-0.9-2.3l-0.9,2.3H121.2z" style="stroke-dasharray: 33, 35; stroke-dashoffset: 0;"></path>
		<path class="st0" d="M128.6,127.3v2.4c0,0.1,0,0.2,0.1,0.2c0.1,0,0.2,0.1,0.4,0.1h0.1c0,0,0,0,0,0.1v0.1c-0.2,0-0.4,0-0.5,0    c-0.2,0-0.3,0-0.5,0c-0.2,0-0.3,0-0.5,0s-0.4,0-0.5,0c0-0.1,0-0.1,0-0.1c0-0.1,0-0.1,0.1-0.1c0.2,0,0.4-0.1,0.5-0.1    s0.1-0.1,0.1-0.2V125c0-0.1,0-0.2-0.1-0.2s-0.2-0.1-0.5-0.1c-0.1,0-0.1-0.1-0.1-0.1v-0.1c0.2,0,0.3,0,0.5,0s0.4,0,0.5,0    c0.2,0,0.3,0,0.5,0c0.2,0,0.4,0,0.6,0c0,0.1,0,0.1,0,0.1c0,0.1,0,0.1-0.1,0.1c-0.2,0-0.4,0.1-0.5,0.1c-0.1,0-0.1,0.1-0.1,0.2    V127.3l2.1-2.3l0.1-0.1v-0.1c0-0.1,0-0.1-0.1-0.1c-0.1,0-0.2-0.1-0.3-0.1c-0.1,0-0.1-0.1-0.1-0.2v-0.1c0.2,0,0.3,0,0.5,0    s0.3,0,0.5,0c0.1,0,0.3,0,0.4,0c0.1,0,0.3,0,0.4,0c0,0.1,0,0.1,0,0.1c0,0.1,0,0.1-0.1,0.2c-0.1,0-0.2,0.1-0.4,0.1    s-0.2,0.1-0.3,0.2l-2.1,2l2.6,2.8c0.1,0.1,0.2,0.2,0.3,0.2c0.1,0,0.2,0.1,0.4,0.1c0.1,0,0.1,0.1,0.1,0.1v0.1c-0.2,0-0.4,0-0.6,0    c-0.2,0-0.4,0-0.6,0c-0.2,0-0.3,0-0.5,0c-0.2,0-0.4,0-0.6,0c0-0.1,0-0.1,0-0.1c0-0.1,0-0.1,0.1-0.1c0.3,0,0.4-0.1,0.4-0.2    s0-0.1-0.1-0.2L128.6,127.3z" style="stroke-dasharray: 39, 41; stroke-dashoffset: 0;"></path>
		<path class="st0" d="M141.4,129.7c0,0.1,0,0.2,0.1,0.2s0.2,0.1,0.5,0.1c0.1,0,0.1,0.1,0.1,0.1s0,0.1,0,0.2c-0.1,0-0.3,0-0.5,0    c-0.2,0-0.4,0-0.5,0c-0.2,0-0.3,0-0.5,0s-0.4,0-0.5,0c0-0.1,0-0.1,0-0.2s0-0.1,0.1-0.1c0.2,0,0.4-0.1,0.4-0.1    c0.1,0,0.1-0.1,0.1-0.2v-2.3h-2.9v2.3c0,0.1,0,0.2,0.1,0.2c0.1,0,0.2,0.1,0.5,0.1c0.1,0,0.1,0.1,0.1,0.1s0,0.1,0,0.2    c-0.2,0-0.3,0-0.5,0c-0.2,0-0.4,0-0.5,0c-0.2,0-0.3,0-0.5,0c-0.2,0-0.4,0-0.5,0c0-0.1,0-0.1,0-0.2s0-0.1,0.1-0.1    c0.2,0,0.4-0.1,0.5-0.1c0.1,0,0.1-0.1,0.1-0.2V125c0-0.1,0-0.1,0-0.1s0-0.1-0.1-0.1c0,0-0.1-0.1-0.2-0.1c-0.1,0-0.2,0-0.3-0.1    c-0.1,0-0.1-0.1-0.1-0.1v-0.1c0.1,0,0.3,0,0.5,0c0.2,0,0.4,0,0.5,0c0.2,0,0.3,0,0.5,0c0.2,0,0.4,0,0.5,0c0,0.1,0,0.1,0,0.1    c0,0.1,0,0.1-0.1,0.1c-0.2,0-0.4,0.1-0.4,0.1c-0.1,0.1-0.1,0.1-0.1,0.3v2.1h2.9V125c0-0.1,0-0.2-0.1-0.2c-0.1-0.1-0.2-0.1-0.4-0.1    c-0.1,0-0.1-0.1-0.1-0.1v-0.1c0.1,0,0.3,0,0.5,0s0.4,0,0.5,0c0.2,0,0.3,0,0.5,0s0.4,0,0.5,0c0,0.1,0,0.1,0,0.1    c0,0.1,0,0.1-0.1,0.1c-0.2,0-0.4,0.1-0.4,0.1c-0.1,0.1-0.1,0.1-0.1,0.3v4.6L141.4,129.7L141.4,129.7z" style="stroke-dasharray: 41, 43; stroke-dashoffset: 0;"></path>
		<path class="st0" d="M145.8,127.3c0-0.4,0.1-0.9,0.2-1.2c0.1-0.4,0.3-0.8,0.6-1c0.3-0.3,0.5-0.5,1-0.6c0.3-0.2,0.8-0.2,1.1-0.2    c0.5,0,1,0.1,1.4,0.2c0.4,0.2,0.8,0.4,1,0.6c0.2,0.3,0.4,0.6,0.6,1c0.1,0.4,0.2,0.8,0.2,1.2c0,0.5-0.1,1-0.2,1.3    c-0.2,0.4-0.4,0.8-0.6,1c-0.3,0.3-0.6,0.4-1,0.6c-0.4,0.1-0.8,0.2-1.2,0.2c-0.4,0-0.9-0.1-1.2-0.2c-0.3-0.1-0.6-0.3-1-0.6    c-0.2-0.3-0.4-0.6-0.6-1C145.8,128.2,145.8,127.7,145.8,127.3z M149,130c0.3,0,0.5-0.1,0.9-0.2c0.2-0.1,0.4-0.2,0.6-0.4    c0.2-0.2,0.3-0.4,0.4-0.8c0.1-0.3,0.1-0.5,0.1-0.9c0-0.4,0-0.9-0.1-1.3c-0.1-0.4-0.2-0.8-0.4-1c-0.2-0.3-0.4-0.5-0.8-0.6    c-0.3-0.2-0.6-0.2-1-0.2c-0.2,0-0.5,0-0.8,0.1s-0.4,0.2-0.6,0.4c-0.2,0.2-0.3,0.4-0.4,0.6c-0.1,0.2-0.1,0.5-0.1,1s0,0.9,0.1,1.3    c0.1,0.4,0.2,0.8,0.4,1.1c0.2,0.3,0.4,0.5,0.8,0.6C148.3,129.9,148.6,130,149,130z" style="stroke-dasharray: 36, 38; stroke-dashoffset: 0;"></path>
		<path class="st0" d="M161.1,128.1c0,0.3,0,0.6-0.1,1c-0.1,0.3-0.2,0.5-0.4,0.8s-0.4,0.4-0.8,0.5c-0.3,0.1-0.8,0.2-1.2,0.2    c-0.5,0-1-0.1-1.3-0.2c-0.3-0.1-0.5-0.3-0.8-0.5c-0.2-0.2-0.3-0.4-0.3-0.8c-0.1-0.3-0.1-0.5-0.1-0.9V125c0-0.1,0-0.2-0.1-0.3    c-0.1-0.1-0.2-0.1-0.5-0.1c-0.1,0-0.1-0.1-0.1-0.1v-0.1c0.2,0,0.4,0,0.5,0s0.4,0,0.5,0c0.2,0,0.3,0,0.5,0s0.4,0,0.6,0    c0,0.1,0,0.1,0,0.1c0,0.1,0,0.1-0.1,0.1c-0.2,0-0.4,0.1-0.5,0.1c-0.1,0-0.1,0.1-0.1,0.3v3c0,0.6,0.1,1.2,0.4,1.5    c0.2,0.3,0.6,0.5,1.3,0.5c0.3,0,0.6,0,0.9-0.1c0.2-0.1,0.4-0.2,0.6-0.3c0.1-0.2,0.2-0.3,0.3-0.6c0.1-0.2,0.1-0.5,0.1-1v-2.9    c0-0.1,0-0.2-0.1-0.3c-0.1-0.1-0.2-0.1-0.5-0.1c-0.1,0-0.1-0.1-0.1-0.1v-0.1c0.2,0,0.3,0,0.5,0s0.3,0,0.4,0c0.1,0,0.3,0,0.4,0    c0.1,0,0.3,0,0.4,0c0,0.1,0,0.1,0,0.1v0.1c0,0,0,0.1-0.1,0.1c-0.2,0-0.4,0.1-0.4,0.1s-0.1,0.1-0.1,0.3v2.9    C160.9,128.1,161.1,128.1,161.1,128.1z" style="stroke-dasharray: 36, 38; stroke-dashoffset: 0;"></path>
		<path class="st0" d="M169.1,125.7c-0.1,0-0.1,0-0.1,0c-0.1,0-0.1,0-0.2,0l-0.1-0.1c-0.2-0.3-0.3-0.6-0.5-0.8    c-0.2-0.2-0.5-0.2-1-0.2c-0.1,0-0.3,0-0.4,0.1c-0.1,0-0.2,0.1-0.3,0.2c-0.1,0.1-0.2,0.2-0.2,0.3c-0.1,0.1-0.1,0.2-0.1,0.3    c0,0.3,0.1,0.5,0.3,0.8c0.2,0.2,0.6,0.4,1.1,0.5c0.6,0.2,1.1,0.5,1.3,0.8c0.3,0.3,0.4,0.6,0.4,1.1c0,0.2,0,0.5-0.1,0.8    c-0.1,0.2-0.2,0.4-0.3,0.5c-0.2,0.2-0.4,0.3-0.6,0.4c-0.2,0.1-0.5,0.1-1,0.1c-0.4,0-0.8,0-1.1-0.1c-0.3-0.1-0.5-0.2-0.8-0.3    c0-0.2,0-0.5-0.1-0.8c0-0.2-0.1-0.5-0.1-0.8h0.1c0.1,0,0.1,0,0.2,0c0,0,0.1,0.1,0.1,0.2c0.1,0.4,0.3,0.8,0.6,1    c0.2,0.2,0.5,0.3,1.1,0.3c0.2,0,0.3,0,0.5-0.1c0.1-0.1,0.3-0.1,0.3-0.2c0-0.1,0.2-0.2,0.2-0.3c0-0.1,0.1-0.2,0.1-0.4    c0-0.3-0.1-0.5-0.3-0.8s-0.5-0.3-1-0.5c-0.3-0.1-0.5-0.2-0.8-0.3c-0.2-0.1-0.4-0.2-0.5-0.4c-0.1-0.1-0.3-0.3-0.3-0.5    c-0.1-0.2-0.1-0.4-0.1-0.6s0-0.4,0.1-0.6c0.1-0.2,0.2-0.4,0.3-0.5c0.1-0.1,0.3-0.3,0.5-0.3c0.2-0.1,0.4-0.1,0.8-0.1    c0.3,0,0.5,0,0.9,0.1c0.3,0.1,0.5,0.1,0.9,0.3c0,0.2,0,0.4,0,0.6C169.1,125.3,169.1,125.5,169.1,125.7z" style="stroke-dasharray: 31, 33; stroke-dashoffset: 0;"></path>
		<path class="st0" d="M174.8,124.6v2.4h1.5c0.1,0,0.2-0.1,0.2-0.2c0-0.1,0.1-0.3,0.1-0.4c0-0.1,0.1-0.1,0.2-0.1c0,0,0,0,0.1,0h0.1    c0,0.1,0,0.3,0,0.4c0,0.2,0,0.3,0,0.4s0,0.2,0,0.4c0,0.1,0,0.3,0,0.5h-0.1c-0.1,0-0.1,0-0.2-0.1c0-0.2-0.1-0.3-0.1-0.4    c0-0.1-0.1-0.2-0.2-0.2h-1.6v2.3c0,0.1,0.1,0.2,0.2,0.2c0.2,0,0.4,0.1,0.9,0.1h0.5c0.2,0,0.3,0,0.4-0.1c0.1,0,0.2-0.1,0.3-0.2    c0.1-0.1,0.2-0.2,0.3-0.3c0.1-0.1,0.1-0.2,0.2-0.4l0.1-0.1h0.1c0,0,0.1,0,0.1,0.1c-0.1,0.1-0.1,0.2-0.1,0.4s-0.1,0.3-0.1,0.4    c0,0.1-0.1,0.3-0.1,0.4c0,0.1-0.1,0.1-0.1,0.1s-0.1,0-0.2,0s-0.2,0-0.3,0c-0.1,0-0.2,0-0.3,0c-0.1,0-0.2,0-0.3,0h-2    c-0.2,0-0.3,0-0.5,0s-0.4,0-0.5,0c0-0.1,0-0.1,0-0.1c0-0.1,0-0.1,0.1-0.1c0.2,0,0.4-0.1,0.5-0.1c0.1,0,0.1-0.1,0.1-0.2V125    c0-0.1,0-0.2-0.1-0.2c-0.1,0-0.2-0.1-0.5-0.1c-0.1,0-0.1-0.1-0.1-0.1v-0.1c0,0,0,0,0-0.1c0.2,0,0.5,0,0.6,0c0.2,0,0.3,0,0.5,0h1.8    c0.3,0,0.5,0,0.8,0s0.3,0,0.4,0s0.1,0,0.2,0.1c0,0.1,0,0.2,0.1,0.3c0,0.1,0,0.3,0.1,0.4c0,0.2,0.1,0.3,0.1,0.4    c0,0-0.1,0.1-0.2,0.1c-0.1,0-0.1,0-0.1-0.1c-0.1-0.2-0.1-0.3-0.2-0.4c-0.1-0.1-0.1-0.2-0.2-0.3c-0.1-0.1-0.2-0.1-0.3-0.2    c-0.1,0-0.3-0.1-0.4-0.1L174.8,124.6L174.8,124.6z" style="stroke-dasharray: 38, 40; stroke-dashoffset: 0;"></path>
	</g>
	<g>
		<g>
			<path class="st0" d="M53.5,87.2v8.4h5.1c0.4,0,0.8-0.2,0.9-0.6c0.2-0.4,0.3-1,0.4-1.6c0.1-0.3,0.3-0.4,0.6-0.4c0.1,0,0.2,0,0.3,0     s0.2,0,0.3,0.1c0,0.5-0.1,1-0.1,1.6s0,1.2,0,1.6s0,0.8,0,1.4c0,0.5,0.1,1.1,0.1,1.8c-0.2,0-0.3,0.1-0.5,0.1     c-0.4,0-0.6-0.1-0.6-0.4c-0.1-0.6-0.3-1.1-0.4-1.6S59.1,97,58.7,97h-5.1v7.8c0,0.5,0.3,0.8,0.9,0.9s1.6,0.2,2.9,0.2h1.8     c0.6,0,1.2-0.1,1.7-0.3c0.5-0.2,0.9-0.4,1.3-0.8c0.4-0.3,0.7-0.7,1-1.1s0.6-0.9,0.8-1.5c0.1-0.2,0.2-0.2,0.5-0.2     c0.1,0,0.2,0,0.3,0.1c0.1,0.1,0.2,0.1,0.3,0.2c-0.2,0.4-0.4,0.9-0.5,1.5s-0.3,1.1-0.4,1.7c-0.1,0.5-0.3,1-0.4,1.4     c-0.1,0.4-0.3,0.6-0.5,0.6s-0.4,0-0.8,0c-0.3,0-0.7,0-1.1,0c-0.4,0-0.8,0-1.2,0s-0.7,0-1,0H52c-0.6,0-1.3,0-2,0s-1.4,0.1-2.1,0.1     c0-0.2-0.1-0.4-0.1-0.5c0-0.3,0.1-0.5,0.3-0.5c0.8-0.2,1.4-0.3,1.8-0.5c0.4-0.2,0.5-0.5,0.5-0.9v-17c0-0.4-0.2-0.7-0.5-0.9     C49.6,87.1,49,87,48,86.8c-0.2,0-0.3-0.2-0.3-0.6c0-0.1,0-0.2,0-0.3c0-0.1,0-0.2,0-0.2c0.9,0.1,1.7,0.1,2.4,0.1     c0.6,0,1.2,0,1.7,0h6.5c1,0,1.8,0,2.6-0.1c0.7-0.1,1.2-0.1,1.5-0.1s0.5,0.2,0.6,0.5c0.1,0.4,0.2,0.8,0.2,1.3     c0.1,0.5,0.1,1,0.2,1.6c0.1,0.6,0.3,1.1,0.5,1.5c-0.2,0.1-0.4,0.2-0.6,0.2c-0.3,0-0.5-0.1-0.6-0.3c-0.3-0.6-0.5-1.1-0.8-1.5     c-0.2-0.4-0.5-0.7-0.8-1s-0.7-0.5-1.2-0.6s-1-0.2-1.7-0.2L53.5,87.2L53.5,87.2z" style="stroke-dasharray: 134, 136; stroke-dashoffset: 0;"></path>
			<path class="st0" d="M72,96.5c0-1.5,0.3-2.9,0.8-4.3c0.5-1.3,1.3-2.5,2.2-3.5c0.9-1,2-1.8,3.3-2.4s2.6-0.9,4-0.9     c1.9,0,3.6,0.3,5,0.9s2.6,1.4,3.5,2.4s1.6,2.2,2.1,3.5s0.7,2.7,0.7,4.2c0,1.7-0.3,3.3-0.9,4.7c-0.6,1.4-1.4,2.5-2.4,3.5     s-2.2,1.7-3.5,2.2c-1.4,0.5-2.8,0.8-4.3,0.8c-1.6,0-3-0.3-4.3-0.8s-2.4-1.3-3.3-2.3s-1.7-2.1-2.2-3.5C72.2,99.7,72,98.2,72,96.5z      M83.3,106.1c1,0,2-0.2,2.8-0.6c0.9-0.4,1.6-0.9,2.2-1.6s1.1-1.5,1.4-2.5s0.5-2,0.5-3.2c0-1.6-0.2-3-0.5-4.4s-0.8-2.5-1.5-3.5     s-1.5-1.8-2.5-2.4S83.5,87,82.1,87c-0.9,0-1.8,0.2-2.6,0.5c-0.8,0.3-1.5,0.8-2.2,1.5c-0.6,0.6-1.1,1.4-1.5,2.4     c-0.4,0.9-0.6,2-0.6,3.3c0,1.6,0.2,3.1,0.5,4.5c0.4,1.4,0.9,2.6,1.5,3.6c0.7,1,1.5,1.8,2.5,2.4C80.9,105.8,82,106.1,83.3,106.1z" style="stroke-dasharray: 124, 126; stroke-dashoffset: 0;"></path>
			<path class="st0" d="M109.8,97.6h-2.4v7.3c0,0.5,0.2,0.8,0.7,1s1.1,0.3,2.1,0.4c0.3,0,0.4,0.2,0.4,0.6c0,0.2,0,0.3-0.1,0.6     c-0.6,0-1.3-0.1-2.2-0.1c-0.8,0-1.7,0-2.5,0c-0.6,0-1.2,0-2,0c-0.7,0-1.5,0.1-2.1,0.1c0-0.2-0.1-0.4-0.1-0.5     c0-0.3,0.1-0.5,0.4-0.5c0.8-0.1,1.4-0.3,1.8-0.5c0.3-0.2,0.5-0.5,0.5-0.9V88.2c0-0.4-0.2-0.7-0.5-0.9c-0.3-0.2-0.9-0.4-1.9-0.5     c-0.2,0-0.3-0.2-0.3-0.6c0-0.1,0-0.3,0.1-0.5c0.7,0,1.3,0.1,2,0.1s1.4,0,2,0h4.5c2.4,0,4.2,0.5,5.4,1.6c1.2,1,1.8,2.5,1.8,4.2     c0,0.5-0.1,1-0.2,1.5c-0.2,0.5-0.4,1-0.8,1.5c-0.3,0.5-0.8,1-1.3,1.4s-1.2,0.8-1.9,1l5.5,7.6c0.4,0.6,0.9,1,1.4,1.2     s1,0.4,1.4,0.5c0.2,0,0.3,0.2,0.3,0.5c0,0.2,0,0.4-0.1,0.6c-0.5,0-1.1-0.1-1.8-0.1c-0.7,0-1.4,0-2,0c-0.5,0-0.9-0.2-1.4-0.6     s-0.9-0.9-1.3-1.5L109.8,97.6z M109.2,96.3c1.5,0,2.7-0.3,3.6-1c0.8-0.6,1.3-1.8,1.3-3.4c0-0.7-0.1-1.3-0.3-1.9s-0.5-1.1-0.8-1.5     c-0.4-0.4-0.9-0.7-1.5-1c-0.6-0.2-1.4-0.4-2.3-0.4h-1.6v9.1h1.6C109.2,96.2,109.2,96.3,109.2,96.3z" style="stroke-dasharray: 134, 136; stroke-dashoffset: 0;"></path>
			<path class="st0" d="M144.8,107.1c-1,0.2-2,0.3-3,0.4s-2.2,0.1-3.6,0.1c-1.9,0-3.5-0.3-4.9-0.9s-2.6-1.4-3.5-2.3     c-0.9-1-1.6-2.2-2.1-3.5c-0.5-1.4-0.7-2.8-0.7-4.4c0-1.3,0.2-2.6,0.7-4c0.5-1.3,1.1-2.5,2-3.6c0.9-1.1,2.1-1.9,3.4-2.6     c1.4-0.7,3-1,4.8-1c0.7,0,1.3,0,1.9,0c0.6,0,1.2,0.1,1.8,0.2s1.2,0.2,1.8,0.3c0.6,0.1,1.3,0.3,2,0.4c0,0.8,0.1,1.6,0.2,2.4     s0.3,1.6,0.5,2.4c0,0-0.1,0.1-0.3,0.1c-0.1,0-0.2,0-0.3,0c-0.4,0-0.6-0.1-0.7-0.4c-0.4-1.5-1.1-2.5-2-3.2c-0.9-0.6-2.3-1-4.1-1     c-1.4,0-2.6,0.2-3.7,0.7c-1.1,0.5-1.9,1.1-2.6,1.9c-0.7,0.8-1.2,1.8-1.6,2.9c-0.4,1.1-0.5,2.3-0.5,3.6c0,1.5,0.2,2.9,0.7,4.2     c0.5,1.3,1.1,2.4,1.8,3.3c0.8,0.9,1.7,1.6,2.8,2.1s2.2,0.8,3.5,0.8c0.6,0,1.3,0,1.9-0.1c0.6-0.1,1.2-0.2,1.6-0.3v-5     c0-0.6-0.2-1-0.5-1.2c-0.4-0.2-0.9-0.4-1.8-0.5c-0.2,0-0.3-0.1-0.4-0.2c-0.1-0.1-0.1-0.3-0.1-0.4c0-0.2,0-0.4,0.1-0.5     c0.6,0,1.3,0.1,2.1,0.1s1.4,0,2,0s1.2,0,2,0c0.7,0,1.4-0.1,1.9-0.1c0,0.2,0.1,0.4,0.1,0.5c0,0.2,0,0.4-0.1,0.4     c-0.1,0.1-0.2,0.1-0.3,0.1c-0.7,0.1-1.2,0.2-1.5,0.4c-0.3,0.2-0.4,0.5-0.4,1v5.9c0,0.2-0.1,0.4-0.2,0.5     C145.6,106.9,145.3,107,144.8,107.1z" style="stroke-dasharray: 126, 128; stroke-dashoffset: 0;"></path>
		</g>
	</g>
	<g>
		<g>
			<path class="st0" d="M161.9,87.1v11.2h6.8c0.6,0,1-0.3,1.2-0.9s0.4-1.3,0.6-2.1c0.1-0.4,0.4-0.6,0.8-0.6c0.1,0,0.2,0,0.4,0     c0.1,0,0.3,0.1,0.4,0.1c-0.1,0.6-0.1,1.4-0.2,2.2c0,0.8-0.1,1.5-0.1,2.1c0,0.5,0,1.1,0,1.8c0,0.7,0.1,1.5,0.2,2.4     c-0.2,0.1-0.5,0.1-0.7,0.1c-0.5,0-0.7-0.2-0.8-0.6c-0.1-0.8-0.3-1.5-0.6-2.1c-0.2-0.6-0.7-0.9-1.2-0.9h-6.8v10.3     c0,0.6,0.4,1,1.2,1.2s2.1,0.3,3.9,0.3h2.4c0.8,0,1.6-0.1,2.2-0.4c0.6-0.2,1.2-0.6,1.7-1s0.9-0.9,1.3-1.5s0.7-1.2,1.1-1.9     c0.1-0.2,0.3-0.3,0.7-0.3c0.1,0,0.3,0,0.5,0.1s0.3,0.2,0.5,0.3c-0.3,0.6-0.5,1.2-0.7,2s-0.4,1.5-0.5,2.2     c-0.2,0.7-0.4,1.3-0.5,1.8c-0.2,0.5-0.4,0.7-0.7,0.7c-0.2,0-0.6,0-1,0s-0.9-0.1-1.4-0.1s-1,0-1.6-0.1c-0.5,0-1,0-1.4,0H160     c-0.8,0-1.8,0-2.7,0.1c-1,0-1.9,0.1-2.8,0.2c-0.1-0.3-0.1-0.5-0.1-0.7c0-0.4,0.1-0.6,0.4-0.7c1.1-0.2,1.9-0.4,2.4-0.7     c0.5-0.2,0.7-0.6,0.7-1.2v-22c0-0.6-0.2-1-0.6-1.2c-0.4-0.2-1.2-0.4-2.5-0.7c-0.3-0.1-0.4-0.3-0.4-0.7c0-0.1,0-0.3,0-0.4     s0-0.2,0.1-0.3c1.3,0.1,2.3,0.1,3.2,0.2c0.8,0,1.6,0,2.3,0h8.6c1.3,0,2.5,0,3.4-0.1c1-0.1,1.6-0.1,1.9-0.1c0.4,0,0.6,0.2,0.8,0.7     c0.1,0.5,0.2,1.1,0.3,1.7c0.1,0.7,0.2,1.4,0.3,2.1c0.1,0.8,0.3,1.4,0.7,1.9c-0.2,0.2-0.5,0.3-0.8,0.3c-0.4,0-0.6-0.1-0.7-0.4     c-0.4-0.8-0.7-1.4-1-1.9s-0.7-1-1.1-1.3c-0.4-0.4-0.9-0.6-1.5-0.8c-0.6-0.2-1.3-0.3-2.2-0.3C168.7,87.1,161.9,87.1,161.9,87.1z" style="stroke-dasharray: 178, 180; stroke-dashoffset: 0;"></path>
		</g>
	</g>
	<g>
		<path class="st0" d="M34.1,113.6c-1.3,0.2-2.7,0.4-4,0.5c-1.4,0.1-3,0.2-4.8,0.2c-2.5,0-4.7-0.4-6.5-1.1c-1.9-0.8-3.4-1.8-4.6-3.1    c-1.2-1.3-2.1-2.9-2.7-4.7c-0.6-1.8-0.9-3.7-0.9-5.8c0-1.8,0.3-3.5,0.9-5.3c0.6-1.8,1.5-3.3,2.7-4.7c1.2-1.4,2.7-2.5,4.6-3.4    c1.8-0.9,4-1.3,6.4-1.3c0.9,0,1.7,0,2.5,0.1c0.8,0,1.6,0.1,2.4,0.2s1.6,0.3,2.4,0.4c0.8,0.2,1.7,0.4,2.6,0.6    c0.1,1,0.2,2.1,0.3,3.2c0.2,1.1,0.4,2.2,0.6,3.2c-0.1,0.1-0.2,0.1-0.4,0.1s-0.3,0-0.4,0c-0.5,0-0.8-0.2-0.9-0.6    c-0.5-2-1.4-3.4-2.7-4.2c-1.3-0.8-3.1-1.3-5.4-1.3c-1.9,0-3.5,0.3-4.9,0.9S18.7,89,17.8,90c-0.9,1.1-1.6,2.3-2.1,3.8    S15,96.9,15,98.6c0,2,0.3,3.9,0.9,5.6c0.6,1.7,1.4,3.2,2.5,4.4c1,1.2,2.3,2.2,3.7,2.8c1.4,0.7,3,1,4.6,1c0.8,0,1.7-0.1,2.6-0.2    s1.6-0.3,2.2-0.4v-6.7c0-0.8-0.2-1.3-0.7-1.6c-0.5-0.3-1.3-0.5-2.4-0.7c-0.2,0-0.4-0.1-0.5-0.3c-0.1-0.2-0.1-0.4-0.1-0.5    c0-0.2,0-0.5,0.1-0.7c0.8,0.1,1.8,0.1,2.8,0.2c1,0,1.9,0.1,2.7,0.1s1.6,0,2.6-0.1c1,0,1.8-0.1,2.6-0.2c0.1,0.3,0.1,0.5,0.1,0.7    c0,0.3-0.1,0.5-0.2,0.6c-0.1,0.1-0.2,0.2-0.4,0.2c-0.9,0.1-1.6,0.3-1.9,0.6c-0.4,0.3-0.5,0.7-0.5,1.3v7.8c0,0.3-0.1,0.5-0.2,0.7    C35.2,113.3,34.8,113.4,34.1,113.6z" style="stroke-dasharray: 168, 170; stroke-dashoffset: 0;"></path>
	</g>
	<path class="st0" d="M17.3,57.3L17.3,57.3c0.3,0,0.6,0,1,0h0.2c0-0.3,0.2-0.5,0.3-0.8c0,0,0,0,0-0.2c0,0.2,0.2,0.3,0.2,0.5   s0.2,0.3,0.2,0.5c0,0,0,0,0.2,0c0.3,0,0.5,0,0.8,0c0,0,0,0,0.2,0l0,0c-0.2,0.2-0.5,0.3-0.6,0.5c0,0,0,0,0,0.2   c0.2,0.3,0.2,0.6,0.3,1c0,0,0,0-0.2,0c-0.2-0.2-0.5-0.3-0.6-0.5h-0.2c-0.2,0.2-0.5,0.3-0.6,0.5c0,0,0,0-0.2,0   c0.2-0.3,0.2-0.6,0.3-0.8c0-0.2,0-0.2,0-0.2C17.8,57.8,17.6,57.6,17.3,57.3L17.3,57.3z" style="stroke-dasharray: 12, 14; stroke-dashoffset: 0;"></path>
	<path class="st0" d="M56.1,57.3L56.1,57.3c0.3,0,0.6,0,1,0h0.2c0-0.3,0.2-0.5,0.3-0.8c0,0,0,0,0-0.2c0,0.2,0.2,0.3,0.2,0.5   s0.2,0.3,0.2,0.5c0,0,0,0,0.2,0c0.3,0,0.5,0,0.8,0c0,0,0,0,0.2,0l0,0c-0.2,0.2-0.5,0.3-0.6,0.5c0,0,0,0,0,0.2   c0.2,0.3,0.2,0.6,0.3,1c0,0,0,0-0.2,0c-0.2-0.2-0.5-0.3-0.6-0.5h-0.2c-0.2,0.2-0.5,0.3-0.6,0.5c0,0,0,0-0.2,0   c0.2-0.3,0.2-0.6,0.3-0.8c0-0.2,0-0.2,0-0.2C56.6,57.8,56.2,57.6,56.1,57.3L56.1,57.3z" style="stroke-dasharray: 12, 14; stroke-dashoffset: 0;"></path>
	<path class="st0" d="M134.2,57.3C134.3,57.3,134.3,57.3,134.2,57.3c0.3,0,0.6,0,1,0h0.2c0-0.3,0.2-0.5,0.3-0.8c0,0,0,0,0-0.2   c0,0.2,0.2,0.3,0.2,0.5s0.2,0.3,0.2,0.5c0,0,0,0,0.2,0c0.3,0,0.5,0,0.8,0c0,0,0,0,0.2,0l0,0c-0.2,0.2-0.5,0.3-0.6,0.5   c0,0,0,0,0,0.2c0.2,0.3,0.2,0.6,0.3,1c0,0,0,0-0.2,0c-0.2-0.2-0.5-0.3-0.6-0.5h-0.2c-0.2,0.2-0.5,0.3-0.6,0.5c0,0,0,0-0.2,0   c0.2-0.3,0.2-0.6,0.3-0.8c0-0.2,0-0.2,0-0.2C134.6,57.8,134.5,57.6,134.2,57.3C134.3,57.3,134.2,57.3,134.2,57.3z" style="stroke-dasharray: 12, 14; stroke-dashoffset: 0;"></path>
	<path class="st0" d="M165.2,57.3L165.2,57.3c0.3,0,0.6,0,1,0h0.2c0-0.3,0.2-0.5,0.3-0.8c0,0,0,0,0-0.2c0,0.2,0.2,0.3,0.2,0.5   s0.2,0.3,0.2,0.5c0,0,0,0,0.2,0c0.3,0,0.5,0,0.8,0c0,0,0,0,0.2,0l0,0c-0.2,0.2-0.5,0.3-0.6,0.5c0,0,0,0,0,0.2   c0.2,0.3,0.2,0.6,0.3,1c0,0,0,0-0.2,0c-0.2-0.2-0.5-0.3-0.6-0.5h-0.2c-0.2,0.2-0.5,0.3-0.6,0.5c0,0,0,0-0.2,0   c0.2-0.3,0.2-0.6,0.3-0.8c0-0.2,0-0.2,0-0.2C165.7,57.8,165.5,57.6,165.2,57.3L165.2,57.3z" style="stroke-dasharray: 12, 14; stroke-dashoffset: 0;"></path>
	<g>
		<g>
			<path class="st0" d="M24.5,54.9c0.3,0,1,0,1.4,0h2.1c0.3,0,1,0,1.1,0l0,0c0,0.3-0.2,1-0.2,1.4c0,0-0.3,0-0.5,0     c0-0.3,0-0.5-0.2-0.6c0-0.3-0.2-0.3-0.5-0.3c-0.2,0-1.4,0-1.4,0l-0.2,0.2c0,0.6,0,1.3,0,1.9l0,0c0.5,0,1.1,0,1.4,0     c0.2,0,0.2-0.2,0.3-0.3c0-0.2,0-0.3,0.2-0.5c0.2,0,0.3,0,0.5,0c0,0.2,0,0.6,0,1c0,0.3,0,0.6,0,1c0,0-0.3,0-0.5,0     c0-0.2,0-0.3-0.2-0.5c0-0.2-0.2-0.2-0.3-0.2c-0.3,0-1,0-1.4,0l0,0c0,0.6,0,1.4,0,1.8c0,0.2,0.2,0.3,0.2,0.3c0.2,0,1.4,0,1.6,0     c0.3,0,0.5,0,0.6-0.3c0.2-0.2,0.3-0.6,0.5-0.8c0,0,0.3,0,0.5,0.2c0,0.3-0.3,1.1-0.5,1.4c0,0.2-0.2,0.2-0.6,0.2c-1,0-1.9,0-2.7,0     c-0.6,0-1.3,0-1.8,0v-0.3c0.3,0,0.6,0,0.8-0.2c0.2,0,0.3-0.2,0.3-0.5c0-0.2,0-1.1,0-2.3c0-0.8,0-1.6,0-1.9s0-0.5-0.3-0.5     c-0.2,0-0.3,0-0.6-0.2C24.5,55.2,24.5,54.9,24.5,54.9z" style="stroke-dasharray: 40, 42; stroke-dashoffset: 0;"></path>
			<path class="st0" d="M32.6,60.4c0.3,0.2,0.6,0.3,1,0.3c0.5,0,1-0.2,1-1c0-0.6-0.3-0.8-1.3-1.3c-1-0.5-1.4-1-1.4-1.9     c0-1.1,0.8-1.6,1.9-1.6c0.8,0,1.1,0.2,1.6,0.2c0,0.3-0.2,1-0.2,1.4h-0.3c0-0.5-0.2-0.8-0.3-1c-0.2-0.2-0.5-0.2-0.8-0.2     c-0.6,0-1,0.5-1,1s0.3,0.8,0.6,1.1s1,0.5,1.3,0.6c0.5,0.3,1,0.8,1,1.4c0,1-0.8,1.8-2.3,1.8c-0.6,0-1.3-0.2-1.4-0.3     c-0.2-0.2-0.3-1.1-0.3-1.6c0-0.2,0.3-0.2,0.5-0.2C31.9,59.7,32.3,60.2,32.6,60.4z" style="stroke-dasharray: 30, 32; stroke-dashoffset: 0;"></path>
			<path class="st0" d="M41.8,54.9c0.5,0,0.8,0,1-0.2h0.2c-0.2,0.3-0.2,1.3-0.2,1.8c0,0-0.3,0-0.5,0c0-0.3-0.2-0.8-0.2-1     c-0.2-0.2-0.2-0.3-0.3-0.3c-0.5,0-1.1,0-1.3,0l0,0c0,1.4,0,4,0,4.5c0,0.2,0,0.3,0.3,0.3c0.2,0,0.3,0,0.8,0.2v0.3     c-0.3,0-0.8,0-1.6,0c-0.8,0-1.3,0-1.6,0v-0.3c0.3,0,0.6,0,0.8-0.2c0.3,0,0.3-0.3,0.3-0.6c0-1.1,0-2.6,0-4.2V55h-1.1     c-0.2,0-0.3,0-0.5,0.3c-0.2,0.2-0.3,0.5-0.3,1c0,0-0.3,0-0.5-0.2c0-0.5,0.2-1.3,0.2-1.8h0.2c0.2,0.2,0.3,0.2,0.8,0.2h3.5V54.9z" style="stroke-dasharray: 33, 35; stroke-dashoffset: 0;"></path>
			<path class="st0" d="M44.5,61v-0.3c0.3,0,0.5,0,0.8-0.2c0.2,0,0.3-0.2,0.3-0.5c0-0.6,0-1.3,0-2.1c0-0.6,0-1.8,0-2.1     s-0.2-0.3-0.5-0.5c-0.2,0-0.3,0-0.5-0.2v-0.3c0.2,0,1,0,1.3,0c0.5,0,1,0,1.9,0c0.8,0,1.6,0.2,2.1,0.6c0.6,0.5,1,1.3,1,2.3     c0,1.3-0.6,2.1-1.1,2.4c-0.6,0.5-1.3,0.6-2.4,0.6c-0.6,0-1.6,0-2.4,0L44.5,61L44.5,61z M46.6,60.4c0.2,0.2,0.6,0.2,1,0.2     c0.5,0,1-0.2,1.3-0.5c0.5-0.5,0.8-1.1,0.8-2.1c0-1-0.3-1.8-1.1-2.3c-0.5-0.3-1-0.3-1.6-0.3c-0.2,0-0.3,0-0.5,0l-0.2,0.2     c0,0.2,0,1.4,0,2.3c0,0.8,0,1.9,0,2.1C46.4,60,46.6,60.2,46.6,60.4z" style="stroke-dasharray: 39, 41; stroke-dashoffset: 0;"></path>
		</g>
	</g>
	<g>
		<g>
			<path class="st0" d="M140.1,56.7c0,0-0.3-0.2-0.3-0.3c0.3-0.6,1-1.3,1.9-1.3c1,0,1.6,0.6,1.6,1.8c0,0.6-0.3,1.3-1,2.1     c-0.5,0.6-1,1-1.1,1.3v0.2c0.3,0,1,0,1.8,0c0.2,0,0.3-0.2,0.8-1c0.2,0,0.3,0,0.3,0.2c0,0.3-0.3,1.1-0.5,1.4c0,0-0.2,0.2-0.5,0.2     c-0.6,0-1.8,0-2.6,0c-0.2,0-0.3,0-0.5,0c0,0,0-0.2,0-0.3c0.5-0.5,1-1,1.8-1.8c0.5-0.6,0.8-1.3,0.8-1.9c0-0.6-0.3-1.1-1.1-1.1     C140.9,55.8,140.4,56.2,140.1,56.7z" style="stroke-dasharray: 27, 29; stroke-dashoffset: 0;"></path>
			<path class="st0" d="M149.1,55.5c0.3,0.3,0.8,1.1,0.8,2.4c0,1.3-0.3,2.1-1,2.7c-0.5,0.5-1,0.5-1.3,0.5c-0.5,0-1-0.2-1.1-0.3     c-0.5-0.5-0.8-1.3-0.8-2.6c0-1,0.2-1.8,0.8-2.4c0.5-0.5,1-0.6,1.4-0.6C148.6,55,149,55.4,149.1,55.5z M147,55.7     c-0.3,0.3-0.5,1.1-0.5,1.9c0,1.9,0.5,2.7,1.3,2.7c0.2,0,0.5-0.2,0.5-0.2c0.3-0.3,0.5-1.1,0.5-2.3c0-1.8-0.5-2.6-1.3-2.6     C147.4,55.5,147.2,55.5,147,55.7z" style="stroke-dasharray: 29, 31; stroke-dashoffset: 0;"></path>
			<path class="st0" d="M151.7,56.7c0,0-0.3-0.2-0.3-0.3c0.3-0.6,1-1.3,1.9-1.3c1,0,1.6,0.6,1.6,1.8c0,0.6-0.3,1.3-1,2.1     c-0.5,0.6-1,1-1.1,1.3v0.2c0.3,0,1,0,1.8,0c0.2,0,0.3-0.2,0.8-1c0.2,0,0.3,0,0.3,0.2c0,0.3-0.3,1.1-0.5,1.4c0,0-0.2,0.2-0.5,0.2     c-0.6,0-1.8,0-2.6,0c-0.2,0-0.3,0-0.5,0c0,0,0-0.2,0-0.3c0.5-0.5,1-1,1.8-1.8c0.5-0.6,0.8-1.3,0.8-1.9c0-0.6-0.3-1.1-1.1-1.1     C152.5,55.8,152,56.2,151.7,56.7z" style="stroke-dasharray: 27, 29; stroke-dashoffset: 0;"></path>
			<path class="st0" d="M157.5,56.7c0,0-0.3-0.2-0.3-0.3c0.3-0.6,1-1.3,1.9-1.3c1,0,1.6,0.6,1.6,1.8c0,0.6-0.3,1.3-1,2.1     c-0.5,0.6-1,1-1.1,1.3v0.2c0.3,0,1,0,1.8,0c0.2,0,0.3-0.2,0.8-1c0.2,0,0.3,0,0.3,0.2c0,0.3-0.3,1.1-0.5,1.4c0,0-0.2,0.2-0.5,0.2     c-0.6,0-1.8,0-2.6,0c-0.2,0-0.3,0-0.5,0c0,0,0-0.2,0-0.3c0.5-0.5,1-1,1.8-1.8c0.5-0.6,0.8-1.3,0.8-1.9c0-0.6-0.3-1.1-1.1-1.1     C158.3,55.8,157.8,56.2,157.5,56.7z" style="stroke-dasharray: 27, 29; stroke-dashoffset: 0;"></path>
		</g>
	</g>
	<path class="st0" d="M119.9,79.2c-0.2-0.1-0.4-0.1-0.6-0.2c-1-0.4-1.4-1.2-1.5-2.2c-0.1-1.4-0.4-2.7-0.8-4   c-0.3-0.8-0.4-1.7-0.6-2.6c-0.2-1.3-0.9-2.5-1.6-3.6c-1.9-2.8-3.9-5.5-5.8-8.2c-0.7-1-1.5-1.9-2.2-2.8c-0.1-0.1-0.1-0.2-0.2-0.4   c0.3-0.2,0.6-0.5,0.9-0.7c0.1-0.1,0.4-0.1,0.5,0c1.2,0.8,2.5,1.6,3.7,2.5s1.9,2.1,2.4,3.5c0.5,1.2,1.1,2.5,1.6,3.7   c0.1,0.1,0.2,0.2,0.3,0.3c-0.3-0.9-0.7-1.9-1-2.8c-0.3-0.9-0.5-1.8-1-2.7s-1.2-1.8-1.8-2.6c-0.7-0.9-1.6-1.6-2.6-2.2   c-0.4-0.2-0.8-0.4-1.2-0.6c0.9-1.5,1.4-3,1.8-4.7c0.3-1.6,0.5-3.3,0.8-4.9h-0.1c-0.3,1.4-0.6,2.9-1,4.3c-0.6,2.2-1.6,4.3-3.1,6   c-1.3,1.4-2.9,2.5-4.4,3.6c-1.3,1-2.2,2.2-2.6,3.8c0,0.2,0,0.4-0.1,0.6c0.5-0.2,0.6-0.7,0.9-1c0.3-0.4,0.5-0.8,0.7-1.2   c0.3,1,0.5,1.9,0.8,2.8c0.2,0.5,0.6,1,1,1.5c0.5,0.6,1.1,1.1,1.7,1.6c0.3,0.3,0.6,0.6,0.8,1c0.2,0.3,0.2,0.9-0.1,1.1   c-0.6,0.5-1,0.5-1.4,0.1c-0.2-0.2-0.4-0.5-0.7-0.8c0.2,0.6,0.3,1.2,0.5,1.9c-1.4,0.2-2.7,0.3-4,0.4c-0.4,0-0.8-0.1-1.2-0.2   c-0.5-0.1-0.7-0.6-0.6-1.1c0.3-1.3,0.1-2.4-0.6-3.5c-0.7-0.9-0.9-2-1.2-3.1c-0.4-1.4-1.2-2.4-2.6-3c-0.5-0.2-1.2,0.4-1.1,0.9   c0.1,0.7,0.1,1.5,0.2,2.2c0.2,1.8,0.5,3.6,1.3,5.3c0.3,0.5,0.6,1,1.2,1.3c0.4,0.2,0.6,0.6,0.6,1.1c0,0.3-0.1,0.7,0,1   c0.2,0.5,0.3,1,0.7,1.4c1.4,1.4,1.2,2.3,0.3,3.9c-0.5,0.9-1.1,1.7-1.9,2.3c-0.1,0.1-0.3,0.2-0.4,0.3c-0.5-0.3-0.5-0.8-0.6-1.2   c0-0.2-0.1-0.4-0.2-0.6c-0.2-0.3-0.5-0.3-0.6,0.1C93,77.4,93,78,93.4,78.6l-0.1,0.1c-0.5-0.3-1.1-0.5-1.6-0.8   c-0.8-0.5-1.6-1-2.2-1.8s-0.7-1.6-0.2-2.3c0.7-1.2,0.6-2.4,0.4-3.6c-0.2-1-0.3-2-0.5-3c-0.2-1.2-0.8-2.1-1.6-3   c-0.9-1-1.9-2.1-2.7-3.2c-0.3-0.4-0.4-1-0.5-1.5c-0.1-0.9-0.1-1.9-0.3-2.8c-0.2-0.9-0.7-1.5-1.3-2.2c-0.9-1-1.8-2-2.6-3.1   c-0.8-1-1.1-2.3-1.3-3.6c-0.2-1.8,0-3.6,0.4-5.4C79,42,79,41.5,79,41.1c-0.2,0.8-0.6,1.6-0.7,2.4c-0.2,1.1-0.3,2.3-0.3,3.4   c0,2,0.6,3.8,1.9,5.3c0.9,1.1,1.8,2.1,2.6,3.2c0.4,0.6,0.7,1.2,0.7,2c0,0.7-0.2,1.3-0.2,2c-0.1,1-0.2,2.1-0.1,3.1   c0,1.2,0.3,2.4,0.3,3.6c0.1,0.9,0,1.8,0.1,2.7c0.1,0.6,0.3,1.2,0.4,1.7c0.2,0.6,0.4,1.2,0.2,1.9c-0.2,0.8-0.7,1.4-1.5,1.8   S80,75,79.5,75c-0.1-0.6-0.3-1.2-0.4-1.8c-0.1,0-0.1,0-0.2,0c-0.1,0.4-0.1,0.7-0.2,1.1c0,0.2,0,0.3-0.1,0.5   c-0.1,0.3-0.3,0.5-0.7,0.3c-0.8-0.4-1-0.8-0.7-1.7c0.4-1.6,0.8-3.2,1.3-4.8c0.4-1.6,0.6-3.2,0.4-4.7c-0.3-2.6-1-5.1-2.4-7.4   c-1-1.7-2-3.4-2.9-5.2c-0.7-1.3-1-2.7-1.3-4.1c-0.3-2-0.3-4-0.2-6.1c0-1.3,0.2-2.7,0.4-4c0.2-1.1,0.4-2.2,0.6-3.3   c0-0.2,0-0.4-0.1-0.5c-0.8-0.9-1.3-1.9-1.7-3c-0.2-0.5-0.3-1-0.4-1.6c0.3,0.5,0.6,0.9,0.8,1.4c1,1.8,2.5,2.9,4.5,3.2   c1.3,0.2,2.7,0.3,4,0.5c1.2,0.1,2.3,0.1,3.6,0.2c-0.1,0.2-0.1,0.3-0.1,0.5c-0.4,1.5,0.4,3.1,1.5,3.9c0.4,0.3,0.4,0.5,0.1,0.8   c-0.2,0.3-0.5,0.6-0.8,0.8c-0.7,0.5-0.9,1.2-0.6,2c0.1,0.2,0.3,0.5,0.4,0.7c0.3,0.5,0.5,0.9,0.3,1.5v0.1c-0.1,1,0,1.1,1,1.1   c0.4,0,0.7,0,1.1,0v-0.1c-0.6-0.8-1.1-1.6-1.7-2.4c-0.9-1.2-1-2,0.1-3.1c0.5-0.5,1-1.1,1.1-1.9c0-0.1,0-0.3,0-0.4   c-0.1,0-0.1,0-0.2-0.1c-0.1,0.3-0.3,0.6-0.4,0.9c-0.6-0.5-1-1.2-1.2-2c-0.3-1-0.2-2,0.4-2.8c0.4-0.5,0.6-0.6,1.2-0.4   c1.4,0.5,2.9,0.7,4.3,0.6c1.9-0.1,3.8-0.6,5.5-1.3c0.9-0.4,1.8-0.7,2.8-1.1c-1-0.1-1.7,0.1-2.5,0.3c-1.2,0.3-2.4,0.7-3.6,1   c-0.5,0.1-1,0.1-1.7,0.2c0.2-0.3,0.3-0.5,0.4-0.7c1-1.8,1.5-3.7,1.9-5.7c0.2-1,0.4-2,0.7-3c0.5-2.1,1.8-3.4,4-3.8   c-0.1-0.1-0.1-0.1-0.1-0.1c-1-0.1-1.9,0.1-2.8,0.5c-0.9,0.5-1.3,1.3-1.4,2.3c-0.4,2.5-0.9,5.1-1.7,7.5c-0.3,0.9-0.7,1.8-1.2,2.8   c-0.1,0.1-0.3,0.3-0.4,0.2c-0.9-0.1-1.9-0.3-2.8-0.5c-1-0.2-2-0.1-2.9,0.7c-0.6,0.5-1.3,0.4-2,0.3c-0.1,0-0.2-0.1-0.4-0.1   c-1.9,0-3.8-0.2-5.6-0.6c-0.9-0.2-1.8-0.4-2.8-0.7c0.7-0.9,1.2-1.7,1.8-2.5c0.6-0.7,1.1-1.3,1.8-1.9c1.1-1,2.3-1.8,3.5-2.7   c0.3-0.2,0.5-0.5,0.7-0.8c0.9-1.5,2-2.8,3.4-3.8c1.1-0.8,2.3-1.6,3.5-2.2c1.6-0.9,3.4-1.5,5.2-1.8c1.2-0.2,2.4-0.4,3.6-0.4   c1.5,0,3,0.3,4.5,1c0.5-0.4,1-0.8,1.4-1.4c0.7-1,0.4-2.1-0.3-3c-0.9-1.2-2.2-1.7-3.6-2c-1.7-0.4-3.4-0.1-5.1,0.3   c-1.7,0.4-3.4,0.6-5.1,0.5c-1.2-0.1-2.4-0.4-3.1-1.6c-0.6-0.9-0.5-1.5,0.1-2.3c0.7-1.1,1.9-1.5,3.1-1.8c1.6-0.4,3.2-0.2,4.8,0.3   c1.8,0.6,3.5,1.2,5.3,1.8c0.1,0,0.2,0.1,0.4,0.1c-1.9,0.6-3.6-0.3-5.4-0.5c0.8,0.6,1.6,0.8,2.6,1c-0.4,0.4-0.8,0.6-1.3,0.7   c-1.1,0.2-2.2,0-3.2-0.3c-0.9-0.3-1.7-0.7-2.6-0.8c-0.6-0.1-1.3,0-2,0.1c-0.6,0.1-0.8,0.8-0.4,1.3C88.1,9.6,89,10,90.1,10   c1.3,0.1,2.6-0.2,3.8-0.4c1-0.2,2-0.3,2.9-0.4c1.6-0.2,3.1,0,4.6,0.6c1.8,0.7,3.1,1.8,3.5,3.7c0.2,1.1,0,2.1-0.5,3.1   c-0.2,0.4-0.4,0.7-0.6,1.1c-0.1,0.1-0.1,0.3,0,0.4c0.5,0.8,1,1.6,1.5,2.5c0.7,1.4,1.7,2.4,2.9,3.3c1.4,1.1,2.6,2.4,3.5,3.9   c1.2,2,2.2,4,2.8,6.3c0.3,1.1,0.4,2.2,0.6,3.2c0.3,1.8-0.2,3.5-0.6,5.2c-0.5,2.1-0.5,4.2,0.2,6.3c0.5,1.5,1,3,1.5,4.5   c0.5,1.3,0.4,2.6,0.1,3.9c-0.3,1.2-0.2,2.5,0.6,3.5c0.8,1.1,1.1,2.3,1.3,3.6c0.3,1.2,0.4,2.5,0.9,3.7c0.4,1,1.1,1.9,1.7,2.9   c0.2,0.4,0.5,0.8,0.8,1.2c-1,0.4-1.9,0.8-2.9,0.5c0.2,0.5,0.7,0.7,1.3,0.6c0.5-0.1,1-0.3,1.5-0.5c0.3-0.1,0.5,0,0.7,0.2   c0.6,0.8,1.3,1.5,1.9,2.3c0.4,0.6,0.8,1.2,1.2,1.8c0.2,0.4-0.1,0.9-0.5,1.2c-0.4,0.2-0.7,0-1-0.3c-0.2-0.3-0.4-0.5-0.6-0.7h-0.1   c0.1,0.5,0.2,1,0.3,1.6c-0.5,0.1-0.9,0.2-1.4,0.4C121.3,79.2,120.6,79.2,119.9,79.2z M99,40.4c-0.2-0.1-0.4-0.2-0.6-0.2   c-1.1-0.3-2-0.2-2.8,0.7c-0.3,0.3-0.5,0.8-0.8,1.2c-0.3,0.5-0.6,1-1.2,1.2c-0.7,0.2-1.1,0.6-1.2,1.3c-0.2,1.6-0.5,3.2-0.6,4.8   c-0.1,1.5,0,3,0.1,4.5c0,0.3,0.1,0.6,0.1,0.8c0.2-1.9,0.3-3.9,0.6-5.9c0.3-1.7,0.7-3.3,1.1-4.9c0-0.1,0.2-0.2,0.3-0.2   c0.9,0,1.9,0,2.8-0.1c0.4,0,0.8-0.3,1.1-0.5C98.7,42.3,98.8,41.3,99,40.4z M103.5,25.6c0,0.1-0.1,0.1-0.1,0.2   c0.7,0.7,1.4,1.4,2.1,2.1c1.1,1,1.8,2.1,1.6,3.6c-0.1,0.7-0.2,1.4-0.8,1.9c-0.8,0.7-1.8,1-2.8,1.2c-1.7,0.4-3.3,0.8-5,1.2   c-0.3,0.1-0.4,0-0.4-0.2c-0.2-0.8-0.1-1.6,0.2-2.4c0.3-0.6,0.7-1.1,1.6-1c1.2,0.1,2.5,0,3.6-0.4c1-0.4,1.8-0.9,1.9-2.1   c-0.4,1.1-1.2,1.7-2.3,1.9c-0.7,0.2-1.4,0.3-2.2,0.3c-0.5,0-1.1-0.1-1.6-0.2c-0.1,0-0.3,0-0.3,0.1c-0.8,0.5-1.3,1.2-1.6,2.1   c-0.4,1.3,0.1,2.3,1.3,2.8c0.3,0.1,0.7,0.2,0.9,0.1c0.7-0.8,1.6-1.1,2.6-1.4c1.4-0.4,2.8-0.7,4.2-1.1c1.8-0.5,2.5-2.6,1.8-4.3   c-0.6-1.3-1.5-2.2-2.6-3C104.9,26.4,104.2,26,103.5,25.6z M101.6,38.4c3.1,0.6,5.7-0.1,7.8-2.6c-0.2,0-0.3,0-0.4,0.1   c-0.7,0.3-1.3,0.6-2,1c-1.2,0.7-2.5,0.9-3.9,0.7c-0.5-0.1-1.1-0.3-1.6-0.4c-0.5-0.1-0.6-0.1-0.7,0.5c0,1.1,0,2.3-0.1,3.4   c-0.1,0.8-0.2,1.6-0.3,2.3c-0.1,0.6-0.4,1.3-0.6,1.9C101.2,43.1,102.4,41.1,101.6,38.4z M82.8,39.3c-1.7-0.3-2.6-0.7-3.1-1.4   c0.4,0.2,0.7,0.4,1.1,0.5c1,0.3,2.1,0.6,3.2,0.4c0.3-0.1,0.4-0.1,0.4-0.4c0-1.1-0.9-1.9-2-1.9c-1.7,0.1-3.4,0.3-5,0.5   C78.7,38.6,80.5,39.5,82.8,39.3z M98.6,50c-0.4,0.4-0.7,0.9-0.7,1.5s0,1.2,0,1.8c0,0.5-0.1,1-0.3,1.4c-0.2,0.5-0.6,0.8-1.1,1   c-0.4,0.2-0.8,0.2-1.2-0.1c-0.1-0.1-0.2-0.1-0.3-0.1c-0.7-0.2-1.3,0-1.5,0.5c0.3,0,0.5-0.1,0.8-0.1c0.6,0,1,0.3,1.2,0.9   c0.2,0.5-0.1,0.7-0.4,0.9c0,0,0,0.1,0,0c0.7-0.1,1.3-0.2,1.9-0.3c0.5-0.1,0.9-0.4,1-0.8c0.2-0.5,0.3-1,0.3-1.5   c0-0.6-0.1-1.1-0.1-1.7C98.3,52.3,98.2,51.1,98.6,50z M95.1,57.2c-0.2-0.6-0.7-0.9-1-0.8c-0.8,0.2-1.7,0.9-1.8,1.6   C93.2,57.8,93.9,56.8,95.1,57.2z" style="stroke-dasharray: 791, 793; stroke-dashoffset: 0;"></path>
	<path class="st0" d="M86.1,46.9c0.7,0.3,0.8,0.9,0.9,1.4c0.4,1.5,0.2,3,0.2,4.5c0,0.6-0.5,1.2-0.7,1.9c-0.2,0.5-0.3,1.1-0.3,1.6   c-0.1,0.9,0.2,1.2,1.1,1.5s1.8,0.5,2.7,0.9c0.3,0.1,0.6,0.4,0.9,0.7c0,0.1-0.1,0.1-0.1,0.2c-0.3-0.1-0.6-0.2-0.9-0.4   c-0.9-0.6-1.8-0.9-2.8-1.1c-1.6-0.4-1.9-1.5-1.3-2.9s1-2.8,0.8-4.3c-0.1-1.2-0.3-2.4-0.5-3.6C86.2,47.2,86.2,47.1,86.1,46.9z" style="stroke-dasharray: 33, 35; stroke-dashoffset: 0;"></path>
	<path class="st0" d="M88.9,57.7c-0.6-0.2-1.2-0.4-1.7-0.7c-0.2-0.1-0.5-0.2-0.4-0.6c0.2-0.3,0.5-0.2,0.7-0.1c0.5,0.4,1,0.8,1.5,1.2   C89,57.6,88.9,57.6,88.9,57.7z" style="stroke-dasharray: 6, 8; stroke-dashoffset: 0;"></path>
</g>
</svg>