<?xml version="1.0" encoding="utf-8"?>
<!-- Generator: Adobe Illustrator 26.4.1, SVG Export Plug-In . SVG Version: 6.00 Build 0)  -->
<svg version="1.1" id="Layer_1" xmlns="http://www.w3.org/2000/svg" xmlns:xlink="http://www.w3.org/1999/xlink" x="0px" y="0px"
	 viewBox="0 0 656.4 245" style="enable-background:new 0 0 656.4 245;" xml:space="preserve">
<style type="text/css">
	.st0{fill:#E1B728;}
</style>
<g>
	<g>
		<path class="st0" d="M156.3,232.6c0.1,0,0.2,0,0.3,0c0.7,0,1.4,0,2.1,0c0.2,0,0.2,0,0.3-0.2c0.2-0.7,0.4-1.4,0.7-2.1
			c0-0.1,0.1-0.1,0.1-0.3c0.2,0.5,0.3,0.9,0.4,1.3c0.1,0.4,0.2,0.7,0.3,1.1c0,0.2,0.1,0.2,0.3,0.2c0.7,0,1.4,0,2.2,0
			c0.1,0,0.2,0,0.3,0c-0.1,0.1-0.1,0.1-0.2,0.1c-0.6,0.4-1.2,0.9-1.8,1.3c-0.1,0.1-0.2,0.2-0.1,0.3c0.3,0.8,0.5,1.5,0.8,2.3
			c-0.1-0.1-0.2-0.1-0.2-0.2c-0.6-0.4-1.2-0.9-1.8-1.3c-0.1-0.1-0.2-0.1-0.3,0c-0.6,0.4-1.2,0.9-1.7,1.3c-0.1,0-0.1,0.1-0.3,0.2
			c0.3-0.8,0.5-1.5,0.8-2.3c0.1-0.2,0-0.3-0.2-0.5c-0.6-0.4-1.2-0.8-1.8-1.3C156.4,232.7,156.3,232.6,156.3,232.6z"/>
		<path class="st0" d="M175.8,232.6c0.1,0,0.2,0,0.3,0c0.7,0,1.4,0,2.1,0c0.2,0,0.2,0,0.3-0.2c0.2-0.7,0.4-1.4,0.7-2.1
			c0-0.1,0.1-0.1,0.1-0.3c0.2,0.5,0.3,0.9,0.4,1.3c0.1,0.4,0.2,0.7,0.3,1.1c0,0.2,0.1,0.2,0.3,0.2c0.7,0,1.4,0,2.2,0
			c0.1,0,0.2,0,0.3,0c-0.1,0.1-0.1,0.1-0.2,0.1c-0.6,0.4-1.2,0.9-1.8,1.3c-0.1,0.1-0.2,0.2-0.1,0.3c0.3,0.8,0.5,1.5,0.8,2.3
			c-0.1-0.1-0.2-0.1-0.2-0.2c-0.6-0.4-1.2-0.9-1.8-1.3c-0.1-0.1-0.2-0.1-0.3,0c-0.6,0.4-1.2,0.9-1.7,1.3c-0.1,0-0.1,0.1-0.3,0.2
			c0.3-0.8,0.5-1.5,0.8-2.3c0.1-0.2,0-0.3-0.2-0.5c-0.6-0.4-1.2-0.8-1.8-1.3C175.9,232.7,175.9,232.6,175.8,232.6z"/>
		<path class="st0" d="M195.3,232.6c0.1,0,0.2,0,0.3,0c0.7,0,1.4,0,2.1,0c0.2,0,0.2,0,0.3-0.2c0.2-0.7,0.4-1.4,0.7-2.1
			c0-0.1,0.1-0.1,0.1-0.3c0.2,0.5,0.3,0.9,0.4,1.3c0.1,0.4,0.2,0.7,0.3,1.1c0,0.2,0.1,0.2,0.3,0.2c0.7,0,1.4,0,2.2,0
			c0.1,0,0.2,0,0.3,0c-0.1,0.1-0.1,0.1-0.2,0.1c-0.6,0.4-1.2,0.9-1.8,1.3c-0.1,0.1-0.2,0.2-0.1,0.3c0.3,0.8,0.5,1.5,0.8,2.3
			c-0.1-0.1-0.2-0.1-0.2-0.2c-0.6-0.4-1.2-0.9-1.8-1.3c-0.1-0.1-0.2-0.1-0.3,0c-0.6,0.4-1.2,0.9-1.7,1.3c-0.1,0-0.1,0.1-0.3,0.2
			c0.3-0.8,0.5-1.5,0.8-2.3c0.1-0.2,0-0.3-0.2-0.5c-0.6-0.4-1.2-0.8-1.8-1.3C195.4,232.7,195.4,232.6,195.3,232.6z"/>
	</g>
	<g>
		<path class="st0" d="M215.2,232.6c0.1,0,0.2,0,0.3,0c0.7,0,1.4,0,2.1,0c0.2,0,0.2,0,0.3-0.2c0.2-0.7,0.4-1.4,0.7-2.1
			c0-0.1,0.1-0.1,0.1-0.3c0.2,0.5,0.3,0.9,0.4,1.3c0.1,0.4,0.2,0.7,0.3,1.1c0,0.2,0.1,0.2,0.3,0.2c0.7,0,1.4,0,2.2,0
			c0.1,0,0.2,0,0.3,0c-0.1,0.1-0.1,0.1-0.2,0.1c-0.6,0.4-1.2,0.9-1.8,1.3c-0.1,0.1-0.2,0.2-0.1,0.3c0.3,0.8,0.5,1.5,0.8,2.3
			c-0.1-0.1-0.2-0.1-0.2-0.2c-0.6-0.4-1.2-0.9-1.8-1.3c-0.1-0.1-0.2-0.1-0.3,0c-0.6,0.4-1.2,0.9-1.7,1.3c-0.1,0-0.1,0.1-0.3,0.2
			c0.3-0.8,0.5-1.5,0.8-2.3c0.1-0.2,0-0.3-0.2-0.5c-0.6-0.4-1.2-0.8-1.8-1.3C215.3,232.7,215.3,232.6,215.2,232.6z"/>
		<path class="st0" d="M234.7,232.6c0.1,0,0.2,0,0.3,0c0.7,0,1.4,0,2.1,0c0.2,0,0.2,0,0.3-0.2c0.2-0.7,0.4-1.4,0.7-2.1
			c0-0.1,0.1-0.1,0.1-0.3c0.2,0.5,0.3,0.9,0.4,1.3c0.1,0.4,0.2,0.7,0.3,1.1c0,0.2,0.1,0.2,0.3,0.2c0.7,0,1.4,0,2.2,0
			c0.1,0,0.2,0,0.3,0c-0.1,0.1-0.1,0.1-0.2,0.1c-0.6,0.4-1.2,0.9-1.8,1.3c-0.1,0.1-0.2,0.2-0.1,0.3c0.3,0.8,0.5,1.5,0.8,2.3
			c-0.1-0.1-0.2-0.1-0.2-0.2c-0.6-0.4-1.2-0.9-1.8-1.3c-0.1-0.1-0.2-0.1-0.3,0c-0.6,0.4-1.2,0.9-1.7,1.3c-0.1,0-0.1,0.1-0.3,0.2
			c0.3-0.8,0.5-1.5,0.8-2.3c0.1-0.2,0-0.3-0.2-0.5c-0.6-0.4-1.2-0.8-1.8-1.3C234.8,232.7,234.8,232.6,234.7,232.6z"/>
		<path class="st0" d="M254.2,232.6c0.1,0,0.2,0,0.3,0c0.7,0,1.4,0,2.1,0c0.2,0,0.2,0,0.3-0.2c0.2-0.7,0.4-1.4,0.7-2.1
			c0-0.1,0-0.1,0.1-0.3c0.2,0.5,0.3,0.9,0.4,1.3c0.1,0.4,0.2,0.7,0.3,1.1c0,0.2,0.1,0.2,0.3,0.2c0.7,0,1.4,0,2.2,0
			c0.1,0,0.2,0,0.3,0c-0.1,0.1-0.1,0.1-0.2,0.1c-0.6,0.4-1.2,0.9-1.8,1.3c-0.1,0.1-0.2,0.2-0.1,0.3c0.3,0.8,0.5,1.5,0.8,2.3
			c-0.1-0.1-0.2-0.1-0.2-0.2c-0.6-0.4-1.2-0.9-1.8-1.3c-0.1-0.1-0.2-0.1-0.3,0c-0.6,0.4-1.2,0.9-1.7,1.3c-0.1,0-0.1,0.1-0.3,0.2
			c0.3-0.8,0.5-1.5,0.8-2.3c0.1-0.2,0-0.3-0.2-0.5c-0.6-0.4-1.2-0.8-1.8-1.3C254.4,232.7,254.3,232.6,254.2,232.6z"/>
	</g>
	<g>
		<path class="st0" d="M275.9,232.6c0.1,0,0.2,0,0.3,0c0.7,0,1.4,0,2.1,0c0.2,0,0.2,0,0.3-0.2c0.2-0.7,0.4-1.4,0.7-2.1
			c0-0.1,0.1-0.1,0.1-0.3c0.2,0.5,0.3,0.9,0.4,1.3c0.1,0.4,0.2,0.7,0.3,1.1c0,0.2,0.1,0.2,0.3,0.2c0.7,0,1.4,0,2.2,0
			c0.1,0,0.2,0,0.3,0c-0.1,0.1-0.1,0.1-0.2,0.1c-0.6,0.4-1.2,0.9-1.8,1.3c-0.1,0.1-0.2,0.2-0.1,0.3c0.3,0.8,0.5,1.5,0.8,2.3
			c-0.1-0.1-0.2-0.1-0.2-0.2c-0.6-0.4-1.2-0.9-1.8-1.3c-0.1-0.1-0.2-0.1-0.3,0c-0.6,0.4-1.2,0.9-1.7,1.3c-0.1,0-0.1,0.1-0.3,0.2
			c0.3-0.8,0.5-1.5,0.8-2.3c0.1-0.2,0-0.3-0.2-0.5c-0.6-0.4-1.2-0.8-1.8-1.3C276,232.7,276,232.6,275.9,232.6z"/>
		<path class="st0" d="M295.4,232.6c0.1,0,0.2,0,0.3,0c0.7,0,1.4,0,2.1,0c0.2,0,0.2,0,0.3-0.2c0.2-0.7,0.4-1.4,0.7-2.1
			c0-0.1,0.1-0.1,0.1-0.3c0.2,0.5,0.3,0.9,0.4,1.3c0.1,0.4,0.2,0.7,0.3,1.1c0,0.2,0.1,0.2,0.3,0.2c0.7,0,1.4,0,2.2,0
			c0.1,0,0.2,0,0.3,0c-0.1,0.1-0.1,0.1-0.2,0.1c-0.6,0.4-1.2,0.9-1.8,1.3c-0.1,0.1-0.2,0.2-0.1,0.3c0.3,0.8,0.5,1.5,0.8,2.3
			c-0.1-0.1-0.2-0.1-0.2-0.2c-0.6-0.4-1.2-0.9-1.8-1.3c-0.1-0.1-0.2-0.1-0.3,0c-0.6,0.4-1.2,0.9-1.7,1.3c-0.1,0-0.1,0.1-0.3,0.2
			c0.3-0.8,0.5-1.5,0.8-2.3c0.1-0.2,0-0.3-0.2-0.5c-0.6-0.4-1.2-0.8-1.8-1.3C295.6,232.7,295.5,232.6,295.4,232.6z"/>
		<path class="st0" d="M315,232.6c0.1,0,0.2,0,0.3,0c0.7,0,1.4,0,2.1,0c0.2,0,0.2,0,0.3-0.2c0.2-0.7,0.4-1.4,0.7-2.1
			c0-0.1,0-0.1,0.1-0.3c0.2,0.5,0.3,0.9,0.4,1.3c0.1,0.4,0.2,0.7,0.3,1.1c0,0.2,0.1,0.2,0.3,0.2c0.7,0,1.4,0,2.2,0
			c0.1,0,0.2,0,0.3,0c-0.1,0.1-0.1,0.1-0.2,0.1c-0.6,0.4-1.2,0.9-1.8,1.3c-0.1,0.1-0.2,0.2-0.1,0.3c0.3,0.8,0.5,1.5,0.8,2.3
			c-0.1-0.1-0.2-0.1-0.2-0.2c-0.6-0.4-1.2-0.9-1.8-1.3c-0.1-0.1-0.2-0.1-0.3,0c-0.6,0.4-1.2,0.9-1.7,1.3c-0.1,0-0.1,0.1-0.3,0.2
			c0.3-0.8,0.5-1.5,0.8-2.3c0.1-0.2,0-0.3-0.2-0.5c-0.6-0.4-1.2-0.8-1.8-1.3C315.1,232.7,315,232.6,315,232.6z"/>
	</g>
	<g>
		<path class="st0" d="M334.4,232.6c0.1,0,0.2,0,0.3,0c0.7,0,1.4,0,2.1,0c0.2,0,0.2,0,0.3-0.2c0.2-0.7,0.4-1.4,0.7-2.1
			c0-0.1,0.1-0.1,0.1-0.3c0.2,0.5,0.3,0.9,0.4,1.3c0.1,0.4,0.2,0.7,0.3,1.1c0,0.2,0.1,0.2,0.3,0.2c0.7,0,1.4,0,2.2,0
			c0.1,0,0.2,0,0.3,0c-0.1,0.1-0.1,0.1-0.2,0.1c-0.6,0.4-1.2,0.9-1.8,1.3c-0.1,0.1-0.2,0.2-0.1,0.3c0.3,0.8,0.5,1.5,0.8,2.3
			c-0.1-0.1-0.2-0.1-0.2-0.2c-0.6-0.4-1.2-0.9-1.8-1.3c-0.1-0.1-0.2-0.1-0.3,0c-0.6,0.4-1.2,0.9-1.7,1.3c-0.1,0-0.1,0.1-0.3,0.2
			c0.3-0.8,0.5-1.5,0.8-2.3c0.1-0.2,0-0.3-0.2-0.5c-0.6-0.4-1.2-0.8-1.8-1.3C334.6,232.7,334.5,232.6,334.4,232.6z"/>
		<path class="st0" d="M354,232.6c0.1,0,0.2,0,0.3,0c0.7,0,1.4,0,2.1,0c0.2,0,0.2,0,0.3-0.2c0.2-0.7,0.4-1.4,0.7-2.1
			c0-0.1,0.1-0.1,0.1-0.3c0.2,0.5,0.3,0.9,0.4,1.3c0.1,0.4,0.2,0.7,0.3,1.1c0,0.2,0.1,0.2,0.3,0.2c0.7,0,1.4,0,2.2,0
			c0.1,0,0.2,0,0.3,0c-0.1,0.1-0.1,0.1-0.2,0.1c-0.6,0.4-1.2,0.9-1.8,1.3c-0.1,0.1-0.2,0.2-0.1,0.3c0.3,0.8,0.5,1.5,0.8,2.3
			c-0.1-0.1-0.2-0.1-0.2-0.2c-0.6-0.4-1.2-0.9-1.8-1.3c-0.1-0.1-0.2-0.1-0.3,0c-0.6,0.4-1.2,0.9-1.7,1.3c-0.1,0-0.1,0.1-0.3,0.2
			c0.3-0.8,0.5-1.5,0.8-2.3c0.1-0.2,0-0.3-0.2-0.5c-0.6-0.4-1.2-0.8-1.8-1.3C354.1,232.7,354.1,232.6,354,232.6z"/>
		<path class="st0" d="M373.5,232.6c0.1,0,0.2,0,0.3,0c0.7,0,1.4,0,2.1,0c0.2,0,0.2,0,0.3-0.2c0.2-0.7,0.4-1.4,0.7-2.1
			c0-0.1,0.1-0.1,0.1-0.3c0.2,0.5,0.3,0.9,0.4,1.3c0.1,0.4,0.2,0.7,0.3,1.1c0,0.2,0.1,0.2,0.3,0.2c0.7,0,1.4,0,2.2,0
			c0.1,0,0.2,0,0.3,0c-0.1,0.1-0.1,0.1-0.2,0.1c-0.6,0.4-1.2,0.9-1.8,1.3c-0.1,0.1-0.2,0.2-0.1,0.3c0.3,0.8,0.5,1.5,0.8,2.3
			c-0.1-0.1-0.2-0.1-0.2-0.2c-0.6-0.4-1.2-0.9-1.8-1.3c-0.1-0.1-0.2-0.1-0.3,0c-0.6,0.4-1.2,0.9-1.7,1.3c-0.1,0-0.1,0.1-0.3,0.2
			c0.3-0.8,0.5-1.5,0.8-2.3c0.1-0.2,0-0.3-0.2-0.5c-0.6-0.4-1.2-0.8-1.8-1.3C373.6,232.7,373.6,232.6,373.5,232.6z"/>
	</g>
	<g>
		<path class="st0" d="M395.2,232.6c0.1,0,0.2,0,0.3,0c0.7,0,1.4,0,2.1,0c0.2,0,0.2,0,0.3-0.2c0.2-0.7,0.4-1.4,0.7-2.1
			c0-0.1,0.1-0.1,0.1-0.3c0.2,0.5,0.3,0.9,0.4,1.3c0.1,0.4,0.2,0.7,0.3,1.1c0,0.2,0.1,0.2,0.3,0.2c0.7,0,1.4,0,2.2,0
			c0.1,0,0.2,0,0.3,0c-0.1,0.1-0.1,0.1-0.2,0.1c-0.6,0.4-1.2,0.9-1.8,1.3c-0.1,0.1-0.2,0.2-0.1,0.3c0.3,0.8,0.5,1.5,0.8,2.3
			c-0.1-0.1-0.2-0.1-0.2-0.2c-0.6-0.4-1.2-0.9-1.8-1.3c-0.1-0.1-0.2-0.1-0.3,0c-0.6,0.4-1.2,0.9-1.7,1.3c-0.1,0-0.1,0.1-0.3,0.2
			c0.3-0.8,0.5-1.5,0.8-2.3c0.1-0.2,0-0.3-0.2-0.5c-0.6-0.4-1.2-0.8-1.8-1.3C395.3,232.7,395.3,232.6,395.2,232.6z"/>
		<path class="st0" d="M414.7,232.6c0.1,0,0.2,0,0.3,0c0.7,0,1.4,0,2.1,0c0.2,0,0.2,0,0.3-0.2c0.2-0.7,0.4-1.4,0.7-2.1
			c0-0.1,0.1-0.1,0.1-0.3c0.2,0.5,0.3,0.9,0.4,1.3c0.1,0.4,0.2,0.7,0.3,1.1c0,0.2,0.1,0.2,0.3,0.2c0.7,0,1.4,0,2.2,0
			c0.1,0,0.2,0,0.3,0c-0.1,0.1-0.1,0.1-0.2,0.1c-0.6,0.4-1.2,0.9-1.8,1.3c-0.1,0.1-0.2,0.2-0.1,0.3c0.3,0.8,0.5,1.5,0.8,2.3
			c-0.1-0.1-0.2-0.1-0.2-0.2c-0.6-0.4-1.2-0.9-1.8-1.3c-0.1-0.1-0.2-0.1-0.3,0c-0.6,0.4-1.2,0.9-1.7,1.3c-0.1,0-0.1,0.1-0.3,0.2
			c0.3-0.8,0.5-1.5,0.8-2.3c0.1-0.2,0-0.3-0.2-0.5c-0.6-0.4-1.2-0.8-1.8-1.3C414.8,232.7,414.8,232.6,414.7,232.6z"/>
		<path class="st0" d="M434.2,232.6c0.1,0,0.2,0,0.3,0c0.7,0,1.4,0,2.1,0c0.2,0,0.2,0,0.3-0.2c0.2-0.7,0.4-1.4,0.7-2.1
			c0-0.1,0.1-0.1,0.1-0.3c0.2,0.5,0.3,0.9,0.4,1.3c0.1,0.4,0.2,0.7,0.3,1.1c0,0.2,0.1,0.2,0.3,0.2c0.7,0,1.4,0,2.2,0
			c0.1,0,0.2,0,0.3,0c-0.1,0.1-0.1,0.1-0.2,0.1c-0.6,0.4-1.2,0.9-1.8,1.3c-0.1,0.1-0.2,0.2-0.1,0.3c0.3,0.8,0.5,1.5,0.8,2.3
			c-0.1-0.1-0.2-0.1-0.2-0.2c-0.6-0.4-1.2-0.9-1.8-1.3c-0.1-0.1-0.2-0.1-0.3,0c-0.6,0.4-1.2,0.9-1.7,1.3c-0.1,0-0.1,0.1-0.3,0.2
			c0.3-0.8,0.5-1.5,0.8-2.3c0.1-0.2,0-0.3-0.2-0.5c-0.6-0.4-1.2-0.8-1.8-1.3C434.3,232.7,434.3,232.6,434.2,232.6z"/>
	</g>
	<g>
		<path class="st0" d="M454.1,232.6c0.1,0,0.2,0,0.3,0c0.7,0,1.4,0,2.1,0c0.2,0,0.2,0,0.3-0.2c0.2-0.7,0.4-1.4,0.7-2.1
			c0-0.1,0-0.1,0.1-0.3c0.2,0.5,0.3,0.9,0.4,1.3c0.1,0.4,0.2,0.7,0.3,1.1c0,0.2,0.1,0.2,0.3,0.2c0.7,0,1.4,0,2.2,0
			c0.1,0,0.2,0,0.3,0c-0.1,0.1-0.1,0.1-0.2,0.1c-0.6,0.4-1.2,0.9-1.8,1.3c-0.1,0.1-0.2,0.2-0.1,0.3c0.3,0.8,0.5,1.5,0.8,2.3
			c-0.1-0.1-0.2-0.1-0.2-0.2c-0.6-0.4-1.2-0.9-1.8-1.3c-0.1-0.1-0.2-0.1-0.3,0c-0.6,0.4-1.2,0.9-1.7,1.3c-0.1,0-0.1,0.1-0.3,0.2
			c0.3-0.8,0.5-1.5,0.8-2.3c0.1-0.2,0-0.3-0.2-0.5c-0.6-0.4-1.2-0.8-1.8-1.3C454.2,232.7,454.2,232.6,454.1,232.6z"/>
		<path class="st0" d="M473.6,232.6c0.1,0,0.2,0,0.3,0c0.7,0,1.4,0,2.1,0c0.2,0,0.2,0,0.3-0.2c0.2-0.7,0.4-1.4,0.7-2.1
			c0-0.1,0.1-0.1,0.1-0.3c0.2,0.5,0.3,0.9,0.4,1.3c0.1,0.4,0.2,0.7,0.3,1.1c0,0.2,0.1,0.2,0.3,0.2c0.7,0,1.4,0,2.2,0
			c0.1,0,0.2,0,0.3,0c-0.1,0.1-0.1,0.1-0.2,0.1c-0.6,0.4-1.2,0.9-1.8,1.3c-0.1,0.1-0.2,0.2-0.1,0.3c0.3,0.8,0.5,1.5,0.8,2.3
			c-0.1-0.1-0.2-0.1-0.2-0.2c-0.6-0.4-1.2-0.9-1.8-1.3c-0.1-0.1-0.2-0.1-0.3,0c-0.6,0.4-1.2,0.9-1.7,1.3c-0.1,0-0.1,0.1-0.3,0.2
			c0.3-0.8,0.5-1.5,0.8-2.3c0.1-0.2,0-0.3-0.2-0.5c-0.6-0.4-1.2-0.8-1.8-1.3C473.8,232.7,473.7,232.6,473.6,232.6z"/>
		<path class="st0" d="M493.1,232.6c0.1,0,0.2,0,0.3,0c0.7,0,1.4,0,2.1,0c0.2,0,0.2,0,0.3-0.2c0.2-0.7,0.4-1.4,0.7-2.1
			c0-0.1,0.1-0.1,0.1-0.3c0.2,0.5,0.3,0.9,0.4,1.3c0.1,0.4,0.2,0.7,0.3,1.1c0,0.2,0.1,0.2,0.3,0.2c0.7,0,1.4,0,2.2,0
			c0.1,0,0.2,0,0.3,0c-0.1,0.1-0.1,0.1-0.2,0.1c-0.6,0.4-1.2,0.9-1.8,1.3c-0.1,0.1-0.2,0.2-0.1,0.3c0.3,0.8,0.5,1.5,0.8,2.3
			c-0.1-0.1-0.2-0.1-0.2-0.2c-0.6-0.4-1.2-0.9-1.8-1.3c-0.1-0.1-0.2-0.1-0.3,0c-0.6,0.4-1.2,0.9-1.7,1.3c-0.1,0-0.1,0.1-0.3,0.2
			c0.3-0.8,0.5-1.5,0.8-2.3c0.1-0.2,0-0.3-0.2-0.5c-0.6-0.4-1.2-0.8-1.8-1.3C493.3,232.7,493.2,232.6,493.1,232.6z"/>
	</g>
</g>
<path class="st0" d="M103,100.8c0.1,0,0.2,0,0.3,0c0.7,0,1.3,0,2,0c0.2,0,0.2,0,0.3-0.2c0.2-0.6,0.4-1.3,0.6-1.9
	c0-0.1,0-0.1,0.1-0.3c0.1,0.4,0.3,0.8,0.4,1.2c0.1,0.3,0.2,0.7,0.3,1c0,0.1,0.1,0.2,0.3,0.2c0.7,0,1.3,0,2,0c0.1,0,0.1,0,0.3,0
	c-0.1,0.1-0.1,0.1-0.1,0.1c-0.6,0.4-1.1,0.8-1.7,1.2c-0.1,0.1-0.2,0.2-0.1,0.3c0.2,0.7,0.5,1.4,0.7,2.1c-0.1-0.1-0.2-0.1-0.2-0.2
	c-0.5-0.4-1.1-0.8-1.6-1.2c-0.1-0.1-0.2-0.1-0.3,0c-0.5,0.4-1.1,0.8-1.6,1.2c-0.1,0-0.1,0.1-0.2,0.2c0.2-0.7,0.5-1.4,0.7-2.1
	c0.1-0.2,0-0.3-0.1-0.4c-0.5-0.4-1.1-0.8-1.6-1.2C103.1,100.9,103.1,100.9,103,100.8z"/>
<path class="st0" d="M196.5,100.8c0.1,0,0.2,0,0.3,0c0.7,0,1.3,0,2,0c0.2,0,0.2,0,0.3-0.2c0.2-0.6,0.4-1.3,0.6-1.9
	c0-0.1,0-0.1,0.1-0.3c0.1,0.4,0.3,0.8,0.4,1.2c0.1,0.3,0.2,0.7,0.3,1c0,0.1,0.1,0.2,0.3,0.2c0.7,0,1.3,0,2,0c0.1,0,0.1,0,0.3,0
	c-0.1,0.1-0.1,0.1-0.1,0.1c-0.6,0.4-1.1,0.8-1.7,1.2c-0.1,0.1-0.2,0.2-0.1,0.3c0.2,0.7,0.5,1.4,0.7,2.1c-0.1-0.1-0.2-0.1-0.2-0.2
	c-0.5-0.4-1.1-0.8-1.6-1.2c-0.1-0.1-0.2-0.1-0.3,0c-0.5,0.4-1.1,0.8-1.6,1.2c-0.1,0-0.1,0.1-0.2,0.2c0.2-0.7,0.5-1.4,0.7-2.1
	c0.1-0.2,0-0.3-0.1-0.4c-0.5-0.4-1.1-0.8-1.6-1.2C196.6,100.9,196.5,100.9,196.5,100.8z"/>
<path class="st0" d="M455.8,100.8c0.1,0,0.2,0,0.3,0c0.7,0,1.3,0,2,0c0.2,0,0.2,0,0.3-0.2c0.2-0.6,0.4-1.3,0.6-1.9
	c0-0.1,0-0.1,0.1-0.3c0.1,0.4,0.3,0.8,0.4,1.2c0.1,0.3,0.2,0.7,0.3,1c0,0.1,0.1,0.2,0.3,0.2c0.7,0,1.3,0,2,0c0.1,0,0.1,0,0.3,0
	c-0.1,0.1-0.1,0.1-0.1,0.1c-0.6,0.4-1.1,0.8-1.7,1.2c-0.1,0.1-0.2,0.2-0.1,0.3c0.2,0.7,0.5,1.4,0.7,2.1c-0.1-0.1-0.2-0.1-0.2-0.2
	c-0.5-0.4-1.1-0.8-1.6-1.2c-0.1-0.1-0.2-0.1-0.3,0c-0.5,0.4-1.1,0.8-1.6,1.2c-0.1,0-0.1,0.1-0.2,0.2c0.2-0.7,0.5-1.4,0.7-2.1
	c0.1-0.2,0-0.3-0.1-0.4c-0.5-0.4-1.1-0.8-1.6-1.2C455.9,100.9,455.9,100.9,455.8,100.8z"/>
<path class="st0" d="M530.5,100.8c0.1,0,0.2,0,0.3,0c0.7,0,1.3,0,2,0c0.2,0,0.2,0,0.3-0.2c0.2-0.6,0.4-1.3,0.6-1.9
	c0-0.1,0-0.1,0.1-0.3c0.1,0.4,0.3,0.8,0.4,1.2c0.1,0.3,0.2,0.7,0.3,1c0,0.1,0.1,0.2,0.3,0.2c0.7,0,1.3,0,2,0c0.1,0,0.1,0,0.3,0
	c-0.1,0.1-0.1,0.1-0.1,0.1c-0.6,0.4-1.1,0.8-1.7,1.2c-0.1,0.1-0.2,0.2-0.1,0.3c0.2,0.7,0.5,1.4,0.7,2.1c-0.1-0.1-0.2-0.1-0.2-0.2
	c-0.5-0.4-1.1-0.8-1.6-1.2c-0.1-0.1-0.2-0.1-0.3,0c-0.5,0.4-1.1,0.8-1.6,1.2c-0.1,0-0.1,0.1-0.2,0.2c0.2-0.7,0.5-1.4,0.7-2.1
	c0.1-0.2,0-0.3-0.1-0.4c-0.5-0.4-1.1-0.8-1.6-1.2C530.7,100.9,530.6,100.9,530.5,100.8z"/>
<g>
	<g>
		<path class="st0" d="M120.6,95c0.6,0,2.2,0.1,3.5,0.1h4.7c0.9,0,2.1,0,2.7-0.1l0.1,0.1c-0.2,0.7-0.4,2.3-0.4,3.3
			c-0.1,0.2-0.9,0.1-1.1,0c0-0.7-0.1-1-0.3-1.4c-0.2-0.6-0.4-0.8-1.1-0.8c-0.4,0-3.4,0-3.6,0s-0.3,0.4-0.3,0.5c0,1.6,0,3,0,4.6
			l0.1,0.2c1.2,0,2.6,0,3.5-0.1c0.4,0,0.5-0.3,0.7-0.6c0.1-0.3,0.2-0.7,0.3-1c0.2-0.1,1,0,1.1,0.1c0,0.5-0.2,1.4-0.2,2.3
			c0,0.8,0,1.6,0,2.3c-0.1,0.1-1,0.1-1.1,0c-0.1-0.6-0.1-0.8-0.2-1.1c-0.1-0.4-0.3-0.5-0.7-0.6c-0.8-0.1-2.3-0.1-3.4-0.1
			c-0.1,0-0.1,0.1-0.1,0.2c0,1.5,0,3.3,0,4.3c0,0.4,0.2,0.8,0.5,0.9c0.5,0.1,3.4,0.1,3.9,0.1c0.6,0,1-0.2,1.5-0.9
			c0.4-0.5,0.8-1.4,1.1-2c0.2,0,0.9,0.2,1,0.4c-0.1,0.8-0.6,2.5-1,3.4c-0.1,0.3-0.3,0.5-1.5,0.5c-2.5,0-4.7-0.1-6.4-0.1
			c-1.6,0-3.2,0.1-4.1,0.1c-0.1-0.1-0.1-0.8,0-0.9c0.8-0.1,1.6-0.2,2-0.3c0.6-0.1,0.7-0.4,0.8-1.2c0-0.4,0-2.9,0-5.4
			c0-2.1,0-4,0-4.5c0-0.8-0.1-1-0.7-1.1c-0.3-0.1-0.8-0.2-1.4-0.3C120.5,95.7,120.5,95.1,120.6,95z"/>
		<path class="st0" d="M139.9,108.2c0.6,0.5,1.4,0.7,2.3,0.7c1,0,2.4-0.6,2.4-2.3c0-1.4-0.9-2.1-3.1-3.3c-2.2-1.2-3.6-2.3-3.6-4.5
			c0-2.6,2.1-4,4.7-4c1.8,0,2.8,0.3,3.8,0.4c-0.2,0.8-0.3,2.3-0.4,3.4c-0.1,0.2-0.8,0.2-0.9,0c-0.1-1.2-0.3-2-0.9-2.4
			c-0.6-0.4-1.3-0.5-2-0.5c-1.6,0-2.4,1.2-2.4,2.2c0,1.3,0.6,1.9,1.6,2.5s2.3,1.2,3.1,1.7c1.3,0.8,2.2,1.8,2.2,3.4
			c0,2.2-1.9,4.4-5.4,4.4c-1.5,0-2.9-0.5-3.6-0.7c-0.2-0.3-0.7-2.9-0.8-3.7c0-0.2,0.8-0.4,1-0.3C138.5,106.5,139,107.6,139.9,108.2z
			"/>
		<path class="st0" d="M162.1,95.1c1.3,0,1.8,0,2.5-0.4c0.1,0,0.3,0.1,0.4,0.1c-0.2,1-0.4,3.1-0.6,4.4c-0.1,0.1-1,0.1-1.1,0
			c-0.1-1-0.2-1.8-0.4-2.2c-0.2-0.5-0.5-0.7-0.9-0.7c-1.3,0-2.5,0-3.1,0c-0.1,0-0.1,0.1-0.1,0.2c0,3.5,0,9.8,0.1,10.9
			c0,0.4,0.2,0.8,0.7,1c0.4,0.1,0.9,0.2,1.9,0.3c0.1,0.1,0,0.8-0.1,0.9c-0.7,0-2.1-0.1-4-0.1c-2,0-3.2,0-3.7,0.1
			c-0.1-0.1-0.1-0.8,0-0.9c0.7-0.1,1.4-0.2,1.8-0.3c0.8-0.2,0.9-0.6,1-1.7c0.1-2.5,0.1-6.2,0.1-10.2c0-0.1-0.1-0.2-0.2-0.2h-2.8
			c-0.4,0-0.7,0.1-1,0.7c-0.3,0.5-0.6,1.3-1,2.3c-0.1,0.1-1-0.1-1-0.3c0.2-1,0.4-3,0.5-4.1c0-0.1,0.3-0.2,0.4-0.1
			c0.4,0.2,0.9,0.3,1.9,0.3L162.1,95.1L162.1,95.1z"/>
		<path class="st0" d="M168.5,109.6c-0.1-0.2-0.1-0.8,0-0.9c0.9,0,1.3-0.1,1.8-0.2c0.4-0.1,0.7-0.4,0.8-1.1c0.1-1.4,0-3.2,0-5.1
			c0-1.4,0-4.1,0-5c-0.1-0.7-0.4-0.9-1-1.1c-0.3-0.1-0.7-0.1-1.3-0.2c0-0.1,0-0.8,0.1-0.9c0.4,0,2.2,0.1,2.9,0.1
			c1.3,0,2.2-0.1,4.7-0.1c2.1,0,3.8,0.6,5,1.6c1.5,1.3,2.3,3.1,2.3,5.4c0,3.2-1.4,5-2.9,6c-1.4,1.1-3.3,1.7-5.9,1.7
			c-1.4,0-3.8,0-5.8-0.1h-0.7L168.5,109.6L168.5,109.6z M173.8,108c0.5,0.4,1.5,0.6,2.3,0.6c1.1,0,2.2-0.2,3.3-1.2s1.8-2.5,1.8-5
			c0-2.4-0.9-4.3-2.7-5.4c-1-0.7-2.4-0.9-3.9-0.9c-0.4,0-0.9,0-1.1,0.1c-0.1,0-0.2,0.2-0.2,0.3c0,0.4,0,3.6,0,5.5s0,4.7,0,5
			C173.4,107.3,173.5,107.8,173.8,108z"/>
	</g>
</g>
<g>
	<g>
		<path class="st0" d="M469.9,99c-0.2,0-0.7-0.5-0.7-0.6c0.8-1.4,2.5-3.2,4.7-3.2s3.9,1.7,3.9,4.2c0,1.7-0.9,3.2-2.5,5
			c-1.3,1.4-2.1,2.2-2.8,2.9c-0.1,0.1,0,0.2,0.1,0.3c0.8,0.1,2.5,0.1,4.3,0.1c0.5,0,1-0.4,1.9-2.3c0.2,0,0.7,0.2,0.9,0.4
			c-0.1,0.7-0.8,2.9-1.3,3.6c0,0.1-0.3,0.2-1.4,0.2c-1.4,0-4.4-0.1-6.4-0.1c-0.4,0-1,0-1.2,0c-0.1-0.1-0.1-0.5-0.1-0.7
			c1.2-1.1,2.5-2.2,4.2-4.4c1.2-1.6,2-3.1,2-4.5c0-1.5-0.7-2.9-2.6-2.9C471.9,97.2,470.9,97.9,469.9,99z"/>
		<path class="st0" d="M491.8,96.4c0.8,0.8,1.8,2.7,1.8,5.7c0,2.9-0.7,5.1-2.2,6.4c-1.1,1.1-2.4,1.3-3.1,1.3c-1.2,0-2.1-0.3-2.8-0.9
			c-1.3-1.1-2.1-3.2-2.1-6.2c0-2.3,0.5-4.4,1.8-5.9c1-1.1,2.3-1.6,3.6-1.6C490.4,95.2,491.5,96,491.8,96.4z M486.9,97
			c-0.7,0.8-1.2,2.6-1.2,4.8c0,4.6,1.2,6.8,3.1,6.8c0.5,0,1.1-0.2,1.3-0.5c0.7-0.8,1.1-2.5,1.1-5.3c0-4.2-1.1-6.4-2.9-6.4
			C487.6,96.4,487.2,96.6,486.9,97z"/>
		<path class="st0" d="M498,99c-0.2,0-0.7-0.5-0.7-0.6c0.8-1.4,2.5-3.2,4.7-3.2s3.9,1.7,3.9,4.2c0,1.7-0.9,3.2-2.5,5
			c-1.3,1.4-2.1,2.2-2.8,2.9c-0.1,0.1,0,0.2,0.1,0.3c0.8,0.1,2.5,0.1,4.3,0.1c0.5,0,1-0.4,1.9-2.3c0.2,0,0.7,0.2,0.9,0.4
			c-0.1,0.7-0.8,2.9-1.3,3.6c0,0.1-0.3,0.2-1.4,0.2c-1.4,0-4.4-0.1-6.4-0.1c-0.4,0-1,0-1.2,0c-0.1-0.1-0.1-0.5-0.1-0.7
			c1.2-1.1,2.5-2.2,4.2-4.4c1.2-1.6,2-3.1,2-4.5c0-1.5-0.7-2.9-2.6-2.9C499.9,97.2,498.9,97.9,498,99z"/>
		<path class="st0" d="M512,99c-0.2,0-0.7-0.5-0.7-0.6c0.8-1.4,2.5-3.2,4.7-3.2s3.9,1.7,3.9,4.2c0,1.7-0.9,3.2-2.5,5
			c-1.3,1.4-2.1,2.2-2.8,2.9c-0.1,0.1,0,0.2,0.1,0.3c0.8,0.1,2.5,0.1,4.3,0.1c0.5,0,1-0.4,1.9-2.3c0.2,0,0.7,0.2,0.9,0.4
			c-0.1,0.7-0.8,2.9-1.3,3.6c0,0.1-0.3,0.2-1.4,0.2c-1.4,0-4.4-0.1-6.4-0.1c-0.4,0-1,0-1.2,0c-0.1-0.1-0.1-0.5-0.1-0.7
			c1.2-1.1,2.5-2.2,4.2-4.4c1.2-1.6,2-3.1,2-4.5c0-1.5-0.7-2.9-2.6-2.9C513.9,97.2,512.9,97.9,512,99z"/>
	</g>
</g>
<path class="st0" d="M376.2,154.5c-0.4-0.1-0.8-0.3-1.2-0.4c-2-0.7-2.8-2.4-2.9-4.3c-0.2-2.7-0.8-5.3-1.7-7.9
	c-0.5-1.7-0.9-3.4-1.2-5.1c-0.4-2.6-1.7-4.9-3.2-7c-3.8-5.4-7.6-10.8-11.5-16.2c-1.4-1.9-2.9-3.7-4.4-5.5c-0.2-0.2-0.3-0.4-0.5-0.7
	c0.6-0.5,1.1-1,1.7-1.4c0.2-0.1,0.7-0.2,0.9,0c2.4,1.6,4.9,3.1,7.2,4.8c2.3,1.7,3.7,4.2,4.8,6.9c1,2.4,2.1,4.8,3.2,7.2
	c0.1,0.3,0.3,0.5,0.6,0.7c-0.6-1.9-1.3-3.7-1.9-5.6c-0.6-1.8-1-3.6-1.9-5.3c-1-1.9-2.3-3.5-3.6-5.2c-1.4-1.8-3.2-3.2-5.2-4.3
	c-0.7-0.4-1.5-0.7-2.3-1.1c1.8-2.9,2.8-6,3.5-9.2s1-6.5,1.5-9.7c-0.1,0-0.2,0-0.3,0c-0.6,2.8-1.2,5.7-2,8.5
	c-1.1,4.4-3.1,8.4-6.2,11.8c-2.5,2.8-5.6,4.9-8.6,7.2c-2.5,1.9-4.3,4.3-5,7.4c-0.1,0.4-0.1,0.8-0.1,1.3c1-0.4,1.2-1.3,1.7-2
	c0.5-0.8,0.9-1.6,1.4-2.4c0.5,1.9,0.9,3.7,1.6,5.4c0.4,1.1,1.1,2,1.9,2.9c1,1.1,2.2,2.1,3.3,3.2c0.6,0.6,1.1,1.3,1.6,1.9
	c0.5,0.7,0.3,1.7-0.2,2.1c-1.2,1-1.9,1-2.7,0.2c-0.5-0.5-0.9-1.1-1.4-1.5c0.3,1.2,0.7,2.4,1.1,3.7c-2.7,0.3-5.3,0.7-7.9,0.8
	c-0.8,0.1-1.6-0.3-2.3-0.5c-1.1-0.3-1.4-1.1-1.2-2.1c0.5-2.5,0.3-4.8-1.2-6.9c-1.3-1.8-1.7-4-2.3-6.1c-0.7-2.8-2.4-4.8-5.1-5.8
	c-1-0.4-2.4,0.7-2.2,1.8c0.2,1.4,0.2,2.9,0.4,4.3c0.4,3.6,0.9,7.1,2.5,10.4c0.5,1.1,1.2,2,2.3,2.5c0.9,0.4,1.2,1.2,1.2,2.1
	c0,0.7-0.2,1.4,0,2c0.3,0.9,0.6,2,1.3,2.7c2.8,2.8,2.3,4.5,0.6,7.6c-0.9,1.7-2.1,3.4-3.7,4.5c-0.3,0.2-0.5,0.4-0.8,0.5
	c-1-0.6-0.9-1.5-1.1-2.3c-0.1-0.4-0.2-0.8-0.4-1.1c-0.4-0.6-0.9-0.5-1.2,0.2c-0.4,1.2-0.3,2.4,0.3,3.5c-0.1,0.1-0.1,0.1-0.2,0.2
	c-1.1-0.5-2.2-0.9-3.2-1.5c-1.6-0.9-3.1-2-4.3-3.5c-1.2-1.5-1.4-3-0.5-4.6c1.3-2.3,1.1-4.6,0.7-7.1c-0.3-2-0.6-4-1-6
	c-0.4-2.3-1.6-4.2-3.2-5.9c-1.9-2-3.7-4.1-5.3-6.2c-0.6-0.8-0.8-2-0.9-3c-0.3-1.8-0.3-3.7-0.6-5.5c-0.3-1.7-1.5-3-2.5-4.2
	c-1.7-2-3.6-4-5.2-6.1c-1.5-2-2.2-4.5-2.5-7c-0.5-3.6,0.1-7.1,0.7-10.6c0.2-0.9,0.3-1.8,0.2-2.7c-0.5,1.6-1.1,3.1-1.4,4.7
	c-0.4,2.2-0.6,4.5-0.6,6.7c0,3.9,1.1,7.5,3.7,10.5c1.7,2.1,3.5,4.2,5.2,6.3c0.9,1.1,1.5,2.4,1.5,3.9c0,1.3-0.3,2.6-0.4,3.9
	c-0.1,2-0.3,4.1-0.2,6.1c0.1,2.4,0.5,4.7,0.7,7.1c0.1,1.7,0,3.5,0.2,5.2c0.1,1.2,0.5,2.3,0.9,3.4c0.4,1.2,0.8,2.4,0.4,3.8
	c-0.5,1.6-1.5,2.8-3,3.5c-1.6,0.8-4.7,1.6-5.8,1.5c-0.3-1.2-0.5-2.4-0.8-3.6c-0.1,0-0.2,0-0.3,0c-0.1,0.7-0.3,1.4-0.4,2.1
	c-0.1,0.3-0.1,0.7-0.2,0.9c-0.3,0.5-0.6,0.9-1.4,0.5c-1.6-0.8-1.9-1.6-1.5-3.4c0.8-3.2,1.7-6.3,2.5-9.4c0.9-3.1,1.1-6.2,0.8-9.3
	c-0.6-5.1-2-10.1-4.7-14.6c-2-3.3-4-6.7-5.8-10.2c-1.3-2.5-2-5.3-2.5-8.1c-0.6-4-0.6-8-0.5-11.9c0.1-2.7,0.5-5.3,0.9-7.9
	c0.3-2.2,0.8-4.4,1.2-6.6c0.1-0.3,0-0.8-0.2-1.1c-1.5-1.8-2.5-3.8-3.4-6c-0.4-1-0.7-2-0.8-3.1c0.6,0.9,1.1,1.8,1.7,2.7
	c2,3.5,4.9,5.7,8.9,6.3c2.6,0.4,5.2,0.7,7.8,0.9c2.3,0.2,4.6,0.2,7,0.3c-0.1,0.3-0.2,0.6-0.3,0.9c-0.8,2.9,0.8,6.1,2.9,7.7
	c0.7,0.5,0.8,1,0.3,1.7c-0.5,0.6-1,1.1-1.6,1.6c-1.3,1-1.8,2.3-1.1,3.8c0.2,0.5,0.5,1,0.8,1.4c0.7,0.9,1,1.8,0.6,2.9
	c0,0.1,0,0.2,0,0.3c-0.2,1.9,0.1,2.2,2,2.2c0.7,0,1.4,0,2.1,0c0-0.1,0-0.2,0-0.2c-1.1-1.6-2.1-3.2-3.3-4.7c-1.8-2.3-2-4,0.2-6.2
	c1.1-1,2-2.2,2.2-3.7c0-0.3,0.1-0.6,0.1-0.8c-0.1,0-0.2-0.1-0.3-0.1c-0.3,0.6-0.6,1.2-0.8,1.8c-1.3-1-2-2.4-2.4-3.9
	c-0.5-1.9-0.5-3.8,0.8-5.6c0.7-0.9,1.2-1.2,2.3-0.8c2.8,0.9,5.6,1.3,8.5,1.1c3.8-0.3,7.4-1.2,10.9-2.6c1.8-0.7,3.6-1.4,5.6-2.2
	c-1.9-0.3-3.4,0.3-4.9,0.7c-2.4,0.6-4.7,1.4-7.1,2.1c-1,0.3-2,0.3-3.3,0.4c0.3-0.6,0.5-1,0.7-1.4c1.9-3.6,3-7.4,3.8-11.3
	c0.4-2,0.8-4,1.3-5.9c1-4.1,3.4-6.8,7.8-7.5c-0.1-0.1-0.2-0.3-0.3-0.3c-1.9-0.2-3.7,0.1-5.5,1c-1.8,1-2.5,2.6-2.8,4.4
	c-0.9,5-1.8,10-3.4,14.8c-0.6,1.9-1.5,3.6-2.3,5.4c-0.1,0.2-0.6,0.5-0.8,0.5c-1.9-0.3-3.7-0.6-5.5-0.9c-2.1-0.3-4-0.1-5.6,1.3
	c-1.2,1.1-2.5,0.7-3.9,0.7c-0.2,0-0.5-0.1-0.7-0.1c-3.7,0-7.4-0.4-11.1-1.1c-1.8-0.4-3.5-0.8-5.5-1.3c1.3-1.8,2.3-3.4,3.5-4.9
	c1.1-1.3,2.3-2.6,3.6-3.7c2.2-1.9,4.6-3.6,6.8-5.4c0.5-0.4,1.1-0.9,1.4-1.5c1.8-2.9,4-5.4,6.7-7.4c2.2-1.6,4.5-3.1,6.8-4.4
	c3.2-1.7,6.6-3,10.2-3.6c2.3-0.4,4.7-0.7,7-0.7c3,0,5.9,0.5,8.8,2c0.9-0.9,2-1.7,2.8-2.7c1.3-1.9,0.8-4.1-0.6-5.9
	c-1.8-2.3-4.4-3.3-7.1-3.9c-3.4-0.7-6.7-0.3-10,0.5s-6.6,1.3-10,0.9c-2.4-0.2-4.8-0.9-6.1-3.1c-1.1-1.8-1-2.9,0.2-4.6
	c1.5-2.1,3.7-2.9,6.1-3.5c3.2-0.8,6.4-0.5,9.5,0.5c3.5,1.1,7,2.4,10.5,3.5c0.2,0.1,0.4,0.1,0.8,0.2c-3.8,1.1-7.1-0.6-10.7-1
	c1.6,1.2,3.2,1.7,5.1,1.9c-0.7,0.8-1.6,1.2-2.5,1.4c-2.2,0.5-4.3,0.1-6.3-0.6c-1.7-0.6-3.4-1.3-5.2-1.6c-1.3-0.2-2.6-0.1-3.9,0.1
	c-1.2,0.2-1.5,1.7-0.8,2.6c1.3,1.6,3.1,2.3,5.1,2.4c2.6,0.1,5.1-0.4,7.6-0.9c1.9-0.4,3.8-0.5,5.8-0.8c3.1-0.5,6.1,0,9.1,1.1
	c3.5,1.3,6.1,3.5,6.8,7.4c0.4,2.1,0.1,4.2-0.9,6.1c-0.4,0.7-0.8,1.4-1.1,2.1c-0.1,0.2-0.1,0.7,0,0.9c0.9,1.7,2,3.2,2.9,4.9
	c1.3,2.7,3.4,4.8,5.7,6.6c2.8,2.2,5.1,4.7,6.9,7.8c2.3,3.9,4.3,7.9,5.5,12.4c0.6,2.1,0.9,4.2,1.3,6.4c0.6,3.5-0.4,6.8-1.1,10.2
	c-1,4.2-0.9,8.3,0.4,12.4c0.9,3,1.9,5.9,3,8.9c0.9,2.6,0.8,5.1,0.2,7.7c-0.5,2.5-0.5,4.8,1.1,6.9s2.1,4.5,2.6,7
	c0.5,2.4,0.8,5,1.7,7.3c0.8,2,2.2,3.8,3.4,5.7c0.5,0.8,1,1.5,1.6,2.4c-1.9,0.7-3.7,1.6-5.8,1c0.4,1,1.4,1.4,2.5,1.1
	c1-0.3,2-0.6,3-0.9c0.5-0.2,0.9-0.1,1.3,0.4c1.2,1.5,2.6,3,3.8,4.6c0.9,1.1,1.6,2.3,2.3,3.6c0.4,0.8-0.1,1.8-1,2.3s-1.4,0-2-0.6
	c-0.4-0.5-0.8-0.9-1.2-1.4c-0.1,0-0.2,0.1-0.2,0.1c0.2,1,0.4,2,0.6,3.1c-1,0.3-1.8,0.5-2.7,0.7C379,154.5,377.6,154.5,376.2,154.5z
	 M335,78.1c-0.4-0.2-0.8-0.3-1.2-0.4c-2.1-0.6-4-0.3-5.4,1.4c-0.6,0.7-1,1.5-1.6,2.3c-0.6,0.9-1.2,1.9-2.3,2.3
	c-1.3,0.4-2.2,1.2-2.4,2.6c-0.5,3.2-1.1,6.3-1.3,9.5c-0.2,2.9,0.1,5.9,0.1,8.8c0,0.6,0.2,1.2,0.3,1.6c0.4-3.8,0.7-7.7,1.3-11.6
	c0.5-3.3,1.3-6.5,2.1-9.7c0-0.2,0.4-0.4,0.6-0.4c1.9,0,3.7,0.1,5.6-0.1c0.7-0.1,1.5-0.5,2.1-1C334.5,82,334.6,80,335,78.1z
	 M343.9,49.1c-0.1,0.1-0.2,0.2-0.3,0.3c1.4,1.4,2.7,2.8,4.2,4.1c2.1,1.9,3.4,4.2,3.2,7.1c-0.1,1.4-0.4,2.7-1.5,3.7
	c-1.6,1.4-3.5,1.9-5.4,2.4c-3.3,0.8-6.6,1.5-9.9,2.3c-0.5,0.1-0.7-0.1-0.9-0.5c-0.4-1.6-0.2-3.2,0.4-4.6c0.5-1.3,1.4-2.1,3.1-2
	c2.4,0.2,4.8,0,7.2-0.9c2-0.7,3.5-1.8,3.7-4.1c-0.7,2.3-2.4,3.3-4.5,3.8c-1.4,0.3-2.8,0.5-4.2,0.6c-1.1,0-2.1-0.2-3.2-0.3
	c-0.2,0-0.5,0-0.7,0.1c-1.5,1-2.6,2.4-3.1,4.2c-0.7,2.5,0.2,4.5,2.5,5.4c0.5,0.2,1.5,0.4,1.7,0.1c1.4-1.5,3.2-2.2,5.1-2.7
	c2.7-0.7,5.5-1.4,8.2-2.2c3.5-1,4.9-5.2,3.5-8.4c-1.1-2.5-3-4.3-5.1-5.9C346.6,50.6,345.2,49.9,343.9,49.1z M340.3,74.2
	c6.1,1.3,11.1-0.1,15.3-5.1c-0.5,0.1-0.7,0.1-0.9,0.1c-1.3,0.6-2.6,1.2-3.9,1.9c-2.4,1.3-5,1.8-7.7,1.3c-1.1-0.2-2.1-0.5-3.2-0.8
	c-1-0.3-1.3-0.1-1.3,0.9c-0.1,2.2-0.1,4.5-0.2,6.7c-0.1,1.5-0.3,3.1-0.7,4.6c-0.3,1.3-0.8,2.5-1.2,3.7
	C339.3,83.6,341.7,79.5,340.3,74.2z M303.2,76.1c-3.4-0.6-5-1.3-6.1-2.8c0.7,0.3,1.4,0.7,2.1,1c2,0.7,4.1,1.3,6.3,0.8
	c0.5-0.1,0.8-0.3,0.8-0.9c0-2.2-1.9-3.8-4-3.7c-3.3,0.2-6.6,0.6-9.9,0.9C295.3,74.6,298.8,76.4,303.2,76.1z M334.3,97.1
	c-0.8,0.9-1.4,1.8-1.3,3c0,1.2,0.1,2.3,0,3.5c-0.1,0.9-0.2,1.9-0.6,2.8c-0.4,1-1.2,1.6-2.2,2c-0.8,0.3-1.6,0.5-2.3-0.2
	c-0.2-0.2-0.4-0.2-0.7-0.3c-1.3-0.3-2.5,0.1-2.9,0.9c0.5-0.1,1-0.2,1.6-0.2c1.1,0.1,1.9,0.6,2.4,1.7c0.4,0.9-0.2,1.3-0.7,1.9
	c0,0,0,0.1,0,0c1.3-0.2,2.6-0.3,3.8-0.5c1-0.2,1.7-0.7,2-1.6c0.3-1,0.5-2,0.6-3c0.1-1.1-0.1-2.2-0.1-3.3
	C333.7,101.5,333.6,99.3,334.3,97.1z M327.4,111.3c-0.5-1.1-1.3-1.7-2-1.6c-1.6,0.3-3.4,1.8-3.5,3.1
	C323.8,112.4,325.1,110.5,327.4,111.3z"/>
<path class="st0" d="M309.8,91c1.3,0.6,1.6,1.8,1.8,2.8c0.7,2.9,0.5,6,0.3,8.9c-0.1,1.2-0.9,2.4-1.3,3.7c-0.3,1-0.5,2.1-0.6,3.2
	c-0.1,1.7,0.4,2.4,2.1,2.9c1.7,0.6,3.5,1.1,5.2,1.7c0.7,0.3,1.2,0.9,1.8,1.3c-0.1,0.1-0.1,0.2-0.2,0.4c-0.6-0.3-1.2-0.5-1.7-0.8
	c-1.7-1.1-3.6-1.7-5.5-2.2c-3.2-0.8-3.8-2.9-2.5-5.6c1.3-2.8,1.9-5.6,1.7-8.5c-0.2-2.3-0.6-4.7-1-7C309.9,91.6,309.8,91.4,309.8,91z
	"/>
<path class="st0" d="M315.2,112.2c-1.1-0.5-2.3-0.9-3.4-1.4c-0.4-0.2-1.1-0.4-0.7-1.1c0.3-0.6,1-0.5,1.4-0.1c1,0.8,2,1.6,3,2.4
	C315.3,112,315.2,112.1,315.2,112.2z"/>
</svg>
